<svg width="2048" height="2524" viewBox="0 0 200 200" xmlns="http://www.w3.org/2000/svg" xmlns:xlink="http://www.w3.org/1999/xlink" xmlns:dc="http://purl.org/dc/elements/1.1/" xmlns:rdf="http://www.w3.org/1999/02/22-rdf-syntax-ns#"><defs><clipPath id="shield_225536304"><path d="M 100,0 C 75,25 30,25 30,25 c 0,69 20,145 70,175 50,-30 71,-106 70,-175 0,0 -45,0 -70,-25 z"/></clipPath><clipPath id="division_225536304"><rect x="100" y="0" width="100" height="200"/></clipPath><style>.secondary {
      fill: var(--secondary);
    }
    .tertiary {
      fill: var(--tertiary);
    }</style><linearGradient id="luster" x1="0%" y1="100%" x2="95%" y2="10%">
            <stop stop-color="#000" stop-opacity=".3" offset="0"/>
            <stop stop-color="#ccc" stop-opacity="0" offset=".8"/>
            <stop stop-color="#fff" stop-opacity=".2" offset="1"/>
          </linearGradient><g id="mulletFaceted" author="Azgaar" license="https://creativecommons.org/publicdomain/zero/1.0">
    <path d="M100 60l8.98 27.64h29.06l-23.51 17.08 8.98 27.64L100 115.28l-23.51 17.08 8.98-27.64-23.51-17.08h29.06z"/>
    <path fill="#000" fill-opacity=".2" stroke-width=".2" d="M100 100V60l8.98 27.64L100 100l38.04-12.36-23.51 17.08L100 100l23.51 32.36L100 115.28V100l-23.51 32.36 8.98-27.64L100 100 61.96 87.64h29.06z"/>
  </g><g id="sun" author="Azgaar" license="https://creativecommons.org/publicdomain/zero/1.0">
    <path stroke-width=".5" d="M84.7 63c-1 3.9.1 7.1 2 10.1 1.5 2.3 2.4 4.8 2.4 7.5-.7.4-1.3.8-1.9 1.2L71.8 71.7l10.4 15.2c-.2.3-.4.5-.5.8-2.9-1.3-5.7-1.6-8.3-1.1-3.7.7-6.9-.1-10.2-2 2.1 3.5 5.1 5 8.6 5.7 2.7.6 5.1 1.7 7 3.6-.2.7-.4 1.5-.5 2.2l-18.1 3.7 18.1 3.5c0 .3.1.6.2.9-3 1.1-5.2 2.9-6.6 5.1-2.1 3.1-4.9 4.8-8.6 5.8 3.9 1 7.1-.1 10.1-2 2.3-1.5 4.8-2.4 7.5-2.4.4.7.8 1.3 1.2 1.9l-10.3 15.5 15.3-10.4c.3.2.5.4.8.5-1.3 2.9-1.6 5.7-1.1 8.3.7 3.7-.1 6.8-2 10.1 3.5-2.1 5-5.1 5.7-8.6.6-2.7 1.7-5.1 3.6-7 .7.2 1.5.4 2.2.5l3.7 18.1 3.5-18.1c.3 0 .6-.1.9-.2 1.1 3 2.9 5.2 5.1 6.6 3.1 2.1 4.8 4.9 5.8 8.6 1-3.9-.1-7.1-2-10.1-1.5-2.3-2.4-4.8-2.4-7.5.7-.4 1.3-.8 1.9-1.2l15.4 10.2-10.4-15.3c.2-.3.4-.5.5-.8 2.9 1.3 5.7 1.6 8.3 1.1 3.7-.7 6.8.1 10.1 2-2.1-3.5-5.1-4.9-8.6-5.7-2.7-.6-5.1-1.7-7-3.6.2-.7.4-1.5.5-2.2l18.1-3.7-18.1-3.5c0-.3-.1-.6-.2-.9 3-1.1 5.2-2.9 6.6-5.1 2.1-3.1 4.9-4.8 8.6-5.7-3.9-1-7.1.1-10.1 2-2.3 1.5-4.8 2.4-7.5 2.4-.4-.7-.8-1.3-1.2-1.9L128 71.6l-15.3 10.3c-.3-.2-.5-.4-.8-.5 1.3-2.9 1.6-5.7 1.1-8.3-.7-3.7.1-6.9 2-10.2-3.5 2.1-4.9 5.1-5.7 8.6-.6 2.7-1.7 5.2-3.7 7-.7-.2-1.5-.4-2.2-.5L100 60l-3.5 18.1c-.3 0-.6.1-.9.2-1.1-3-2.9-5.2-5.1-6.6-3.1-2.1-4.8-4.9-5.7-8.6z"/>
  </g><g id="mullet8" author="Azgaar" license="https://creativecommons.org/publicdomain/zero/1.0">
    <polygon points="100 60 105.85 85.88 128.28 71.72 114.12 94.15 140 100 114.12 105.85 128.28 128.28 105.85 114.12 100 140 94.15 114.12 71.72 128.28 85.88 105.85 60 100 85.88 94.15 71.72 71.72 94.15 85.88"/>
  </g><style xmlns="http://www.w3.org/1999/xhtml" type="text/css"></style></defs>  <g clip-path="url(#shield_225536304)"><rect class="field" x="0" y="0" width="200" height="200" fill="#000000"/><g class="charge" i="0" charge="mulletFaceted" fill="#cc7f19" stroke="#000" style="--secondary: #cc7f19; --tertiary: #cc7f19;"><use xlink:href="#mulletFaceted" xmlns:xlink="http://www.w3.org/1999/xlink" transform="translate(18 18) scale(0.45)"/><use xlink:href="#mulletFaceted" xmlns:xlink="http://www.w3.org/1999/xlink" transform="translate(55 55) scale(0.45)"/><use xlink:href="#mulletFaceted" xmlns:xlink="http://www.w3.org/1999/xlink" transform="translate(87 87) scale(0.45)"/></g><g class="charge" i="3" charge="mulletFaceted" fill="#cc7f19" stroke="#000" style="--secondary: #cc7f19; --tertiary: #cc7f19;"><use xlink:href="#mulletFaceted" xmlns:xlink="http://www.w3.org/1999/xlink" transform="translate(23 87) scale(0.45)"/></g><g class="division" clip-path="url(#division_225536304)"><rect x="0" y="0" width="200" height="200" fill="#cc7f19"/><g class="charge" i="0" charge="mulletFaceted" fill="#000000" stroke="#000" style="--secondary: #000000; --tertiary: #000000;"><use xlink:href="#mulletFaceted" xmlns:xlink="http://www.w3.org/1999/xlink" transform="translate(18 18) scale(0.45)"/><use xlink:href="#mulletFaceted" xmlns:xlink="http://www.w3.org/1999/xlink" transform="translate(55 55) scale(0.45)"/><use xlink:href="#mulletFaceted" xmlns:xlink="http://www.w3.org/1999/xlink" transform="translate(87 87) scale(0.45)"/></g><g class="charge" i="3" charge="mulletFaceted" fill="#000000" stroke="#000" style="--secondary: #000000; --tertiary: #000000;"><use xlink:href="#mulletFaceted" xmlns:xlink="http://www.w3.org/1999/xlink" transform="translate(23 87) scale(0.45)"/></g></g><g class="charge" i="1" charge="sun" fill="#ffff2b" stroke="#000" style="--secondary: #ffff2b; --tertiary: #ffff2b;"><use xlink:href="#sun" xmlns:xlink="http://www.w3.org/1999/xlink" transform="translate(78 4) scale(0.59)"/></g><g class="charge" i="2" charge="mullet8" fill="#400000" stroke="#000" style="--secondary: #400000; --tertiary: #400000;"><use xlink:href="#mullet8" xmlns:xlink="http://www.w3.org/1999/xlink" transform="translate(101 27) scale(0.36)"/></g></g> <path class="grad" d="M 100,0 C 75,25 30,25 30,25 c 0,69 20,145 70,175 50,-30 71,-106 70,-175 0,0 -45,0 -70,-25 z" fill="url(#luster)" stroke="#333333" stroke-width="1" style="pointer-events: none;"/>  </svg>