<svg width="2048" height="2524" viewBox="0 0 200 200" xmlns="http://www.w3.org/2000/svg" xmlns:xlink="http://www.w3.org/1999/xlink" xmlns:dc="http://purl.org/dc/elements/1.1/" xmlns:rdf="http://www.w3.org/1999/02/22-rdf-syntax-ns#"><defs><clipPath id="shield_955049365"><path d="m 32.3,99.5 a 67.7,93.7 0 1 1 0,1.3 z"/></clipPath><clipPath id="division_955049365"><path d="m 0,115 v -15 l 2,-3.5 -2,0.5 4,-7 l 4,7 -2,-0.5 4,7 -2,-0.5 4,7 4,-7 -2,0.5 4,-7 -2,0.5 4,-7l 4,7 -2,-0.5 4,7 -2,-0.5 4,7 4,-7 -2,0.5 4,-7 -2,0.5 4,-7l 4,7 -2,-0.5 4,7 -2,-0.5 4,7 4,-7 -2,0.5 4,-7 -2,0.5 4,-7l 4,7 -2,-0.5 4,7 -2,-0.5 4,7 4,-7 -2,0.5 4,-7 -2,0.5 4,-7l 4,7 -2,-0.5 4,7 -2,-0.5 4,7 4,-7 -2,0.5 4,-7 -2,0.5 4,-7l 4,7 -2,-0.5 4,7 -2,-0.5 4,7 4,-7 -2,0.5 4,-7 -2,0.5 4,-7l 4,7 -2,-0.5 4,7 -2,-0.5 4,7 4,-7 -2,0.5 4,-7 -2,0.5 4,-7l 4,7 -2,-0.5 4,7 -2,-0.5 4,7 4,-7 -2,0.5 4,-7 -2,0.5 4,-7l 4,7 -2,-0.5 4,7 -2,-0.5 4,7 4,-7 -2,0.5 4,-7 -2,0.5 4,-7l 4,7 -2,-0.5 4,7 -2,-0.5 4,7 4,-7 -2,0.5 4,-7 -2,0.5 4,-7l 4,7 -2,-0.5 4,7 -2,-0.5 4,7 4,-7 -2,0.5 4,-7 -2,0.5 4,-7l 4,7 -2,-0.5 4,7 -2,-0.5 4,7 4,-7 -2,0.5 4,-7 -2,0.5 4,-7 4,7 -2,-0.5 2,3.5 v 15 V400 H0 Z" transform="translate(0 50) scale(.5)"/><path d="m 0,115 v -15 l 2,-3.5 -2,0.5 4,-7 l 4,7 -2,-0.5 4,7 -2,-0.5 4,7 4,-7 -2,0.5 4,-7 -2,0.5 4,-7l 4,7 -2,-0.5 4,7 -2,-0.5 4,7 4,-7 -2,0.5 4,-7 -2,0.5 4,-7l 4,7 -2,-0.5 4,7 -2,-0.5 4,7 4,-7 -2,0.5 4,-7 -2,0.5 4,-7l 4,7 -2,-0.5 4,7 -2,-0.5 4,7 4,-7 -2,0.5 4,-7 -2,0.5 4,-7l 4,7 -2,-0.5 4,7 -2,-0.5 4,7 4,-7 -2,0.5 4,-7 -2,0.5 4,-7l 4,7 -2,-0.5 4,7 -2,-0.5 4,7 4,-7 -2,0.5 4,-7 -2,0.5 4,-7l 4,7 -2,-0.5 4,7 -2,-0.5 4,7 4,-7 -2,0.5 4,-7 -2,0.5 4,-7l 4,7 -2,-0.5 4,7 -2,-0.5 4,7 4,-7 -2,0.5 4,-7 -2,0.5 4,-7l 4,7 -2,-0.5 4,7 -2,-0.5 4,7 4,-7 -2,0.5 4,-7 -2,0.5 4,-7l 4,7 -2,-0.5 4,7 -2,-0.5 4,7 4,-7 -2,0.5 4,-7 -2,0.5 4,-7l 4,7 -2,-0.5 4,7 -2,-0.5 4,7 4,-7 -2,0.5 4,-7 -2,0.5 4,-7l 4,7 -2,-0.5 4,7 -2,-0.5 4,7 4,-7 -2,0.5 4,-7 -2,0.5 4,-7 4,7 -2,-0.5 2,3.5 v 15 V400 H0 Z" transform="translate(200 150) scale(-.5)"/></clipPath><style>.secondary {
      fill: var(--secondary);
    }
    .tertiary {
      fill: var(--tertiary);
    }</style><linearGradient id="luster" x1="0%" y1="100%" x2="95%" y2="10%">
            <stop stop-color="#000" stop-opacity=".3" offset="0"/>
            <stop stop-color="#ccc" stop-opacity="0" offset=".8"/>
            <stop stop-color="#fff" stop-opacity=".2" offset="1"/>
          </linearGradient><g id="laurelWreath" stroke-width=".5" source="http://wappenwiki.org/images/4/4b/Leijonhufvud_Gr%C3%A4fsn%C3%A4s.svg" license="https://creativecommons.org/licenses/by-nc-sa/3.0">
    <g>
      <g>
        <path d="M110.7 68.18c-.35-.27-1.39-.52-2.1-.96-.48.02-.93.32-1.77.24a3.6 3.6 0 0 1-1.46-.52c-1.59-.94-2.19-2.65-2.95-4.21-.15-.3-.3-.6-.4-.9-.03-.07-.12-.27-.05-.37.12-.17.5-.05.67 0 .84.25 1.71.42 2.55.7.6.2 1.22.37 1.79.7.9.49 1.71 1.33 2 2.35.2.7-.1 1.11.06 1.49.62.37.96.22 1.68.6"/>
        <path d="M115.61 72.18c-.5-.2-1.84-.15-2.83-.45-.54.17-.99.67-2.03.87a4.4 4.4 0 0 1-1.94-.15c-2.18-.62-3.47-2.46-4.9-4.07a13.69 13.69 0 0 1-.77-.92c-.08-.1-.25-.3-.2-.42.1-.24.57-.22.79-.22 1.1.02 2.18-.07 3.27 0 .8.05 1.57.05 2.34.25a5.24 5.24 0 0 1 3.17 2.13c.47.74.25 1.36.52 1.76.87.25 1.24-.05 2.2.15"/>
        <g>
          <path stroke="none" fill="#000" d="M113 71.18c-1.38-.5-2.57-1.36-3.91-1.9-1.34-.53-2.78-.82-4.12-1.37.7.22 1.39.45 2.08.6.72.15 1.42.3 2.11.52 1.39.44 2.6 1.26 4 1.68l-.15.47z"/>
        </g>
      </g>
      <g>
        <path d="M89.27 68.18c.35-.27 1.4-.52 2.11-.96.47.02.92.32 1.76.24a3.6 3.6 0 0 0 1.46-.52c1.6-.94 2.19-2.65 2.96-4.21.14-.3.3-.6.4-.9.02-.07.12-.27.04-.37-.12-.17-.5-.05-.67 0-.84.25-1.7.42-2.55.7-.6.2-1.22.37-1.79.7-.9.49-1.7 1.33-2 2.35-.2.7.1 1.11-.06 1.49-.62.37-.96.22-1.68.6"/>
        <path d="M84.36 72.18c.5-.2 1.84-.15 2.83-.45.54.17 1 .67 2.03.87.57.1 1.24.05 1.94-.15 2.18-.62 3.47-2.46 4.9-4.07l.78-.92c.07-.1.24-.3.2-.42-.1-.24-.58-.22-.8-.22-1.09.02-2.18-.07-3.27 0-.8.05-1.57.05-2.33.25a5.24 5.24 0 0 0-3.18 2.13c-.47.74-.25 1.36-.52 1.76-.87.25-1.24-.05-2.2.15"/>
        <g>
          <path stroke="none" fill="#000" d="M86.82 70.71c1.39-.42 2.63-1.21 3.99-1.68 1.39-.45 2.83-.62 4.22-1.12a20.09 20.09 0 0 1-2.06.7c-1.42.37-2.73.89-4 1.6a14.53 14.53 0 0 1-1.98.95c-.02.02-.17-.45-.17-.45z"/>
        </g>
      </g>
      <g>
        <path d="M85.08 71.11c.42-.42 1.76-1 2.63-1.74.62-.07 1.31.23 2.43-.05.62-.17 1.26-.5 1.86-1.01 1.91-1.61 2.38-4.04 3.08-6.33l.34-1.29c.03-.12.13-.4 0-.52-.22-.2-.67.05-.89.15-1.1.52-2.2.92-3.27 1.49-.77.4-1.54.77-2.24 1.31a5.6 5.6 0 0 0-2.2 3.6c-.13.97.37 1.49.27 2.01-.77.64-1.27.52-2.13 1.14"/>
        <g>
          <path stroke="none" fill="#000" d="M86.9 68.56c1.18-1.05 2.07-2.41 3.24-3.5 1.19-1.07 2.55-1.91 3.72-3.05-1.1 1.16-2.4 2.1-3.52 3.22a18.03 18.03 0 0 0-1.51 1.84c-.48.64-1 1.26-1.6 1.83l-.34-.34z"/>
        </g>
      </g>
      <g>
        <path d="M82.82 78c.05-.54.67-1.7.85-2.72.4-.42 1.04-.6 1.66-1.44.35-.47.6-1.1.72-1.79.4-2.23-.67-4.21-1.49-6.2-.15-.37-.3-.74-.5-1.09-.05-.1-.14-.35-.3-.37-.27-.03-.44.42-.54.62-.47 1-1.02 1.9-1.44 2.93-.3.72-.64 1.43-.82 2.2a5.3 5.3 0 0 0 .52 3.8c.48.74 1.12.82 1.37 1.26-.17.9-.6 1.1-.84 2.04"/>
        <path d="M81.78 76.72c.2-.5 1.17-1.42 1.64-2.36.5-.27 1.19-.25 2-.87.48-.35.9-.84 1.25-1.49 1.06-2 .64-4.21.47-6.35l-.15-1.19c-.02-.12-.05-.37-.17-.44-.25-.1-.57.27-.7.42-.74.8-1.56 1.51-2.25 2.36-.53.59-1.05 1.16-1.44 1.86a5.3 5.3 0 0 0-.67 3.76c.22.87.82 1.12.92 1.62-.43.79-.9.86-1.42 1.68"/>
        <path d="M77.64 82.32c.05-.55.67-1.71.84-2.73.4-.42 1.05-.6 1.67-1.44.34-.47.6-1.09.71-1.78.4-2.23-.66-4.22-1.48-6.2-.15-.37-.3-.75-.5-1.1-.05-.1-.15-.34-.3-.37-.27-.02-.44.43-.54.62-.47 1-1.02 1.91-1.44 2.93-.3.72-.65 1.44-.82 2.2a5.3 5.3 0 0 0 .52 3.8c.47.75 1.12.82 1.37 1.27-.18.89-.6 1.09-.85 2.03"/>
        <g>
          <path stroke="none" fill="#000" d="M82.43 73.94c.67-1.3.94-2.73 1.56-4.04.64-1.32 1.51-2.48 2.1-3.82a23.66 23.66 0 0 1-.91 1.96 15.5 15.5 0 0 0-1.61 3.99c-.2.7-.4 1.41-.7 2.08l-.44-.17z"/>
        </g>
      </g>
      <g>
        <path d="M79.18 80.7c.05-.59.77-1.88.97-3 .44-.44 1.16-.64 1.86-1.56.4-.52.67-1.19.81-1.95.48-2.46-.67-4.67-1.53-6.85-.18-.4-.33-.82-.52-1.21-.05-.1-.18-.4-.33-.4-.3-.03-.5.45-.62.67-.52 1.09-1.14 2.1-1.63 3.2-.35.8-.72 1.56-.95 2.4a5.7 5.7 0 0 0 .52 4.2c.5.84 1.22.91 1.47 1.4-.2 1-.67 1.2-.94 2.24"/>
        <g>
          <path stroke="none" fill="#000" d="M78.98 77.58c.27-1.56.1-3.17.35-4.76.25-1.59.8-3.1.99-4.69-.12 1.6-.57 3.15-.74 4.74-.08.8-.05 1.59-.03 2.38.03.8.03 1.61-.07 2.43l-.5-.1z"/>
        </g>
      </g>
      <g>
        <path d="M76.57 83.36c.5-.32 1.27-1.56 2.16-2.28.18-.6 0-1.31.47-2.38.28-.6.72-1.17 1.34-1.66 1.94-1.61 4.42-1.64 6.75-1.94l1.31-.12c.13 0 .42-.05.5.07.17.25-.15.67-.3.85-.7.96-1.29 2-2.03 2.97-.55.7-1.02 1.4-1.66 1.99a5.8 5.8 0 0 1-3.92 1.56c-.97-.05-1.4-.62-1.94-.62-.77.64-.74 1.16-1.51 1.9"/>
        <g>
          <path stroke="none" fill="#000" d="M79.13 81.6c1.31-.94 2.83-1.51 4.17-2.4 1.31-.9 2.45-2.04 3.79-2.9-1.31.94-2.38 2.13-3.65 3.12-.64.5-1.34.9-2.03 1.29A18.15 18.15 0 0 0 79.43 82l-.3-.4z"/>
        </g>
      </g>
      <g>
        <path d="M114.89 71.11c-.42-.42-1.76-1-2.63-1.74-.62-.07-1.31.23-2.43-.05a4.78 4.78 0 0 1-1.86-1.01c-1.9-1.61-2.38-4.04-3.07-6.33l-.35-1.29c-.03-.12-.13-.4 0-.52.22-.2.67.05.9.15 1.08.52 2.2.92 3.27 1.49.76.4 1.53.77 2.23 1.31a5.6 5.6 0 0 1 2.2 3.6c.13.97-.37 1.49-.27 2.01.77.64 1.27.52 2.13 1.14"/>
        <g>
          <path stroke="none" fill="#000" d="M112.73 68.93c-1.16-1.12-1.98-2.53-3.1-3.67-1.11-1.14-2.43-2.06-3.52-3.23 1.14 1.12 2.5 1.96 3.72 3.05.6.55 1.12 1.17 1.64 1.79.52.62 1.04 1.19 1.61 1.71l-.35.35z"/>
        </g>
      </g>
      <g>
        <path d="M117.15 78c-.05-.54-.67-1.7-.85-2.72-.4-.42-1.04-.6-1.66-1.44a4.29 4.29 0 0 1-.72-1.79c-.4-2.23.67-4.21 1.5-6.2.14-.37.29-.74.49-1.09.05-.1.15-.35.3-.37.27-.03.44.42.54.62.47 1 1.02 1.9 1.44 2.93.3.72.64 1.43.82 2.2a5.3 5.3 0 0 1-.52 3.8c-.47.74-1.12.82-1.37 1.26.18.9.6 1.1.85 2.04"/>
        <path d="M118.16 76.72c-.2-.5-1.16-1.42-1.63-2.36-.5-.27-1.2-.25-2.01-.87a4.41 4.41 0 0 1-1.24-1.49c-1.07-2-.65-4.21-.47-6.35l.15-1.19c.02-.12.05-.37.17-.44.25-.1.57.27.7.42.74.8 1.56 1.51 2.25 2.36.52.59 1.04 1.16 1.44 1.86a5.3 5.3 0 0 1 .67 3.76c-.22.87-.82 1.12-.92 1.62.42.79.9.86 1.41 1.68"/>
        <path d="M122.33 82.32c-.05-.55-.67-1.71-.84-2.73-.4-.42-1.04-.6-1.66-1.44a4.29 4.29 0 0 1-.72-1.78c-.4-2.23.67-4.22 1.48-6.2.15-.37.3-.75.5-1.1.05-.1.15-.34.3-.37.27-.02.44.43.54.62.47 1 1.02 1.91 1.44 2.93.3.72.65 1.44.82 2.2a5.3 5.3 0 0 1-.52 3.8c-.47.75-1.12.82-1.36 1.27.17.89.6 1.09.84 2.03"/>
        <g>
          <path stroke="none" fill="#000" d="M117.07 74.14c-.6-1.34-.8-2.8-1.36-4.15-.55-1.33-1.34-2.57-1.89-3.91.33.64.65 1.29 1.02 1.9.37.63.77 1.25 1.1 1.89.61 1.31.91 2.75 1.55 4.04.03.03-.42.23-.42.23z"/>
        </g>
      </g>
      <g>
        <path d="M120.8 80.7c-.06-.59-.78-1.88-.97-3-.45-.44-1.17-.64-1.86-1.56a4.69 4.69 0 0 1-.82-1.95c-.47-2.46.67-4.67 1.53-6.85.18-.4.33-.82.53-1.21.05-.1.17-.4.32-.4.3-.03.5.45.62.67.52 1.09 1.14 2.1 1.63 3.2.35.8.72 1.56.95 2.4a5.7 5.7 0 0 1-.52 4.2c-.5.84-1.22.91-1.47 1.4.2 1 .67 1.2.95 2.24"/>
        <g>
          <path stroke="none" fill="#000" d="M120.5 77.66c-.2-1.61.04-3.2-.1-4.81-.15-1.6-.6-3.15-.75-4.74a18.85 18.85 0 0 0 .47 2.36c.2.76.42 1.53.52 2.35.25 1.59.08 3.2.35 4.76l-.5.08z"/>
        </g>
      </g>
      <g>
        <path d="M123.37 83.36c-.5-.32-1.26-1.56-2.16-2.28-.17-.6 0-1.31-.47-2.38a4.61 4.61 0 0 0-1.34-1.66c-1.93-1.61-4.41-1.64-6.74-1.94l-1.32-.12c-.12 0-.42-.05-.5.07-.17.25.16.67.3.85.7.96 1.3 2 2.04 2.97.54.7 1.02 1.4 1.66 1.99a5.8 5.8 0 0 0 3.92 1.56c.97-.05 1.39-.62 1.93-.62.77.64.75 1.16 1.52 1.9"/>
        <g>
          <path stroke="none" fill="#000" d="M120.54 82c-1.24-1-2.72-1.61-4.01-2.58-1.27-1-2.33-2.18-3.65-3.13 1.34.87 2.48 2.01 3.8 2.9a16.86 16.86 0 0 0 2.05 1.17c.72.37 1.42.77 2.09 1.24l-.28.4z"/>
        </g>
      </g>
    </g>
    <g>
      <g>
        <g>
          <path d="M110.62 113.47a41.7 41.7 0 0 1-3.3 3.32l-1.8 1.69c-.62.57-1.24.92-1.96 1.34-.62.37-1.3.62-1.96.92a20.73 20.73 0 0 0-3.33 1.86c-.42.3-1.33.4-1.78.66-.65.4-1.39.62-2.06.92-.37.18-.7.35-1 .6-.31.25-.56.2-.93.32-.2.07-.38.2-.48.37-.1.18-.1.4-.12.6-.02.82.15 1.63-.07 2.43-.1.37-.35.64-.43 1.01l-.22 1.32c.03-.3.6-.45.8-.57l1.14-.84c.91-.7 1.78-1.44 2.65-2.21 1.79-1.61 3.4-3.18 5.46-4.42.67-.4 1.24-.91 1.93-1.26a24.28 24.28 0 0 0 9.1-7.57"/>
          <g>
            <g>
              <path d="M101.82 121c.17-.51.35-2.08.6-3.07-.2-.54-.72-.96-.95-1.98-.12-.57-.1-1.24.08-1.94.54-2.2 2.33-3.57 3.9-5.05l.88-.8c.1-.07.28-.25.43-.2.24.1.24.57.24.8.03 1.09.15 2.15.13 3.27-.03.8 0 1.56-.15 2.36a5.2 5.2 0 0 1-2.03 3.25c-.72.5-1.37.3-1.77.59-.22.9.35 1.49.18 2.46"/>
              <g>
                <path stroke="none" fill="#000" d="M102.96 118.1c.45-1.38 1.27-2.62 1.76-3.99.47-1.36.72-2.8 1.22-4.16-.2.7-.4 1.39-.52 2.1-.13.72-.25 1.44-.45 2.14-.4 1.39-1.17 2.65-1.54 4.04l-.47-.12z"/>
              </g>
            </g>
            <g>
              <path d="M125.98 86.83c.07-.6-.25-1.96-.2-3.1-.28-.5-.8-.79-1.17-1.8-.2-.58-.3-1.27-.27-2.07.1-2.5 1.41-4.53 2.53-6.6a26.54 26.54 0 0 1 .64-1.13c.08-.1.2-.37.33-.35.24.02.32.52.34.74.2 1.14.5 2.26.67 3.43.13.84.28 1.66.28 2.53a7.2 7.2 0 0 1-1.22 4.09c-.55.77-1.14.74-1.44 1.19-.02 1.02.3 1.29.32 2.35"/>
              <path d="M123.9 87.63c.04-.62-.4-2.11-.4-3.33-.35-.54-1.02-.89-1.54-1.98a5.46 5.46 0 0 1-.45-2.2c-.02-2.69 1.49-4.74 2.73-6.9l.72-1.17c.07-.1.22-.37.37-.37.3.03.42.57.47.82.32 1.24.75 2.43 1.02 3.67.2.9.42 1.79.47 2.7a6.53 6.53 0 0 1-1.24 4.3c-.64.76-1.36.71-1.69 1.18.03 1.07.43 1.4.52 2.53"/>
              <path d="M126.3 97.3c.1-.62-.25-2.13-.15-3.35-.32-.57-.94-.97-1.39-2.08a5.43 5.43 0 0 1-.3-2.26c.18-2.65 1.84-4.61 3.23-6.67.25-.37.52-.77.82-1.12.07-.1.24-.34.4-.32.29.05.36.6.41.84.23 1.27.57 2.48.75 3.75.12.92.3 1.81.27 2.73a6.4 6.4 0 0 1-1.56 4.19c-.7.72-1.42.62-1.76 1.07-.05 1.06.32 1.4.34 2.55"/>
              <path d="M122.3 101.34c.48-.42 1.15-1.8 1.99-2.7.12-.65-.15-1.34.25-2.5.22-.65.62-1.32 1.19-1.94 1.8-1.96 4.31-2.46 6.7-3.18.44-.12.89-.27 1.33-.34.13-.03.42-.13.52 0 .2.22-.1.7-.22.92-.62 1.11-1.12 2.28-1.78 3.37-.48.8-.9 1.59-1.52 2.3a6.45 6.45 0 0 1-3.84 2.29c-1 .12-1.49-.4-2.04-.28-.71.8-.62 1.32-1.33 2.21"/>
              <g>
                <path stroke="none" fill="#000" d="M124.12 84.35c.07-1.7.62-3.34.74-5.06.12-1.68-.02-3.4.12-5.08-.1 1.71.15 3.4.13 5.1-.05 1.72-.5 3.38-.52 5.07l-.47-.03z"/>
              </g>
            </g>
            <g>
              <path d="M124.91 91.47c.2-.6.1-2.16.4-3.32-.23-.62-.82-1.14-1.07-2.33a5.02 5.02 0 0 1 .07-2.26c.62-2.6 2.66-4.2 4.42-5.95l1.02-.94c.1-.08.32-.3.47-.25.3.1.27.67.27.92.02 1.28.17 2.55.15 3.84-.03.92 0 1.83-.18 2.75a6.1 6.1 0 0 1-2.3 3.82c-.84.6-1.54.35-2.01.72-.25 1.04.1 1.46-.07 2.58"/>
              <g>
                <path stroke="none" fill="#000" d="M125.95 88.4c.5-1.64 1.44-3.1 1.96-4.72.52-1.6.8-3.3 1.34-4.9-.52 1.63-.65 3.32-1.1 4.98-.46 1.64-1.33 3.12-1.73 4.76l-.47-.12z"/>
              </g>
            </g>
            <g>
              <path d="M126.15 95.96c-.25-.55-.22-2-.6-3.1.18-.6.72-1.12.87-2.26.1-.64.03-1.36-.22-2.1-.77-2.39-2.83-3.75-4.64-5.26l-1.04-.82c-.1-.08-.32-.27-.47-.2-.27.12-.22.65-.22.87.07 1.19 0 2.4.12 3.6.07.86.12 1.7.35 2.57a5.85 5.85 0 0 0 2.45 3.43c.85.5 1.51.22 1.96.52.3.96 0 1.36.25 2.43"/>
              <g>
                <path stroke="none" fill="#000" d="M124.49 93.3c-.5-1.5-1.44-2.85-1.99-4.33-.54-1.52-.79-3.1-1.38-4.6.64 1.47 1.01 3.03 1.63 4.5.3.72.72 1.41 1.12 2.1a17.6 17.6 0 0 1 1.09 2.16l-.47.18z"/>
              </g>
            </g>
            <g>
              <path d="M125.38 98.91c-.35-.5-.64-1.9-1.21-2.9.02-.62.4-1.24.3-2.38a4.9 4.9 0 0 0-.68-2.03c-1.21-2.19-3.4-3.08-5.38-4.2-.37-.2-.74-.42-1.14-.57-.1-.05-.35-.2-.47-.1-.22.18-.07.67 0 .9.32 1.16.52 2.33.9 3.5.27.81.46 1.66.86 2.42a5.7 5.7 0 0 0 2.98 2.83c.86.3 1.41-.1 1.9.13.48.86.3 1.33.75 2.3"/>
              <g>
                <path stroke="none" fill="#000" d="M123.25 96.68c-.8-1.36-1.94-2.48-2.75-3.84s-1.4-2.86-2.26-4.2c.44.65.87 1.32 1.26 2.01.75 1.42 1.62 2.7 2.7 3.87.53.6 1.05 1.22 1.5 1.89l-.45.27z"/>
              </g>
            </g>
            <g>
              <path d="M123.77 101.54c.35-.52.64-2.06 1.24-3.1-.05-.67-.5-1.31-.42-2.53.05-.7.27-1.44.67-2.16 1.26-2.35 3.67-3.35 5.82-4.59l1.24-.64c.13-.05.4-.2.53-.12.24.17.1.72.02.96-.32 1.24-.5 2.5-.87 3.75-.27.9-.47 1.76-.89 2.6a6.1 6.1 0 0 1-3.22 3.08c-.97.34-1.6-.08-2.11.15-.5.94-.28 1.43-.75 2.48"/>
              <g>
                <path stroke="none" fill="#000" d="M125.6 98.84c.92-1.47 2.19-2.6 3.15-4.02.95-1.41 1.62-2.98 2.58-4.37-.91 1.44-1.51 3.03-2.38 4.52-.87 1.46-2.1 2.68-2.92 4.14l-.43-.27z"/>
              </g>
            </g>
            <g>
              <path d="M119.16 109.1c.22-.54 1.26-1.56 1.78-2.58.55-.32 1.27-.32 2.18-1.01.52-.4.97-.94 1.37-1.64 1.19-2.18.8-4.51.67-6.8-.03-.42-.05-.84-.13-1.26-.02-.12-.02-.4-.17-.45-.27-.1-.6.3-.77.48-.82.89-1.69 1.68-2.48 2.62-.57.67-1.14 1.3-1.59 2.04a5.73 5.73 0 0 0-.79 4.04c.2.9.84 1.14.92 1.66-.47.87-.97.97-1.56 1.86"/>
              <path d="M116.95 109.3c.2-.57 1.14-1.66 1.59-2.7.52-.35 1.24-.42 2.08-1.2.47-.41.9-1 1.21-1.73 1.02-2.28.45-4.56.15-6.82a9.95 9.95 0 0 0-.22-1.24c-.02-.12-.07-.4-.2-.44-.27-.08-.57.34-.72.54-.74.94-1.56 1.81-2.25 2.8-.5.7-1.05 1.37-1.44 2.16a5.77 5.77 0 0 0-.5 4.1c.27.89.92 1.09 1.04 1.58-.42.92-.89 1.04-1.41 1.99"/>
              <path d="M110.92 119.12c.23-.54 1.27-1.56 1.79-2.58.54-.32 1.26-.32 2.18-1.01.52-.4.97-.95 1.36-1.64 1.2-2.18.8-4.51.67-6.8-.02-.42-.05-.84-.12-1.26-.02-.12-.02-.4-.17-.45-.28-.1-.6.3-.77.48-.82.89-1.69 1.68-2.48 2.62-.57.67-1.14 1.3-1.59 2.04a5.73 5.73 0 0 0-.8 4.04c.2.9.85 1.14.92 1.66-.47.87-.96.97-1.56 1.86"/>
              <g>
                <path stroke="none" fill="#000" d="M112.8 115.3c.48-1.38 1.32-2.6 1.84-3.96.5-1.34.77-2.8 1.3-4.15-.23.7-.43 1.4-.55 2.11-.15.72-.28 1.44-.5 2.14-.42 1.38-1.21 2.62-1.61 4.01l-.47-.15z"/>
              </g>
              <g>
                <path stroke="none" fill="#000" d="M117.5 106.28c.61-1.44.84-3.05 1.43-4.52.62-1.46 1.47-2.8 2.01-4.31-.25.74-.54 1.49-.87 2.2a17.86 17.86 0 0 0-1.48 4.47c-.18.77-.35 1.56-.62 2.3-.03.03-.48-.14-.48-.14z"/>
              </g>
            </g>
            <g>
              <path d="M117.74 108.43c.52-.37 1.32-1.68 2.26-2.48.17-.64 0-1.38.47-2.53.27-.62.74-1.24 1.39-1.8 2-1.77 4.59-1.89 7.04-2.26.45-.08.92-.15 1.4-.18.12 0 .44-.05.51.08.18.25-.15.7-.3.92-.71 1.06-1.33 2.18-2.1 3.2-.55.74-1.07 1.48-1.74 2.13a6.25 6.25 0 0 1-4.1 1.78c-1 0-1.45-.62-2.03-.6-.79.73-.76 1.25-1.56 2.07"/>
              <g>
                <g>
                  <path d="M114.17 113.57c.6-.25 1.94-2.11 3-2.66.32-.6.32-1.36 1.04-2.33a5.46 5.46 0 0 1 1.76-1.44c2.36-1.24 4.91-.76 7.4-.57.47.03.91.08 1.38.15.13.03.45.05.5.2.12.3-.32.65-.5.82-.94.87-1.8 1.81-2.8 2.63-.72.6-1.39 1.21-2.18 1.69a6.23 6.23 0 0 1-4.4.79c-.98-.25-1.28-.94-1.85-1.04-.94.5-.77 1.29-1.74 1.88"/>
                  <g>
                    <path stroke="none" fill="#000" d="M117.42 111.56c1.56-.7 3.27-.97 4.84-1.61 1.56-.65 3-1.59 4.58-2.21-1.56.7-2.92 1.69-4.46 2.46-1.54.71-3.22 1.06-4.74 1.8l-.22-.44z"/>
                  </g>
                </g>
              </g>
              <g>
                <path stroke="none" fill="#000" d="M120.37 106.52c1.37-1.04 2.95-1.68 4.34-2.67 1.37-1 2.56-2.24 3.94-3.2-1.36 1.04-2.48 2.33-3.79 3.4-1.34 1.06-2.9 1.76-4.2 2.85l-.29-.38z"/>
              </g>
            </g>
            <g>
              <path d="M102.04 121.75c.6-.05 2.24.42 3.38.4.52.35.84 1.04 1.86 1.54.57.3 1.29.44 2.08.44 2.5.03 4.46-1.51 6.45-2.75.37-.22.74-.47 1.09-.74.1-.08.35-.23.35-.4-.03-.3-.55-.42-.77-.47-1.17-.32-2.28-.75-3.45-1.02-.84-.2-1.66-.42-2.55-.47a5.75 5.75 0 0 0-4.02 1.26c-.72.65-.67 1.37-1.12 1.72-.99-.03-1.04-.43-2.13-.52"/>
              <g>
                <path stroke="none" fill="#000" d="M105.34 121c1.59 0 3.15-.46 4.74-.51 1.61-.03 3.2.22 4.79.12-1.6.17-3.2 0-4.8.15-.78.07-1.55.22-2.32.4-.8.17-1.59.32-2.4.37V121z"/>
              </g>
            </g>
            <g>
              <path d="M107.48 118.35c.57-.17 2.03.03 3.14-.22.58.25 1.02.84 2.14 1.14.62.18 1.36.18 2.13.03 2.46-.47 4.07-2.36 5.78-4l.94-.94c.08-.1.3-.3.25-.44-.08-.3-.62-.3-.84-.33-1.2-.07-2.38-.3-3.6-.32-.87-.02-1.71-.1-2.58.03-1.39.2-2.83.91-3.7 2.03-.59.77-.4 1.49-.76 1.88-1 .18-.87-.17-1.94-.05"/>
              <g>
                <path stroke="none" fill="#000" d="M110.33 117.02c1.56-.33 3-1.1 4.54-1.47 1.56-.35 3.17-.42 4.73-.82-1.51.47-3.12.65-4.66 1.07a16.86 16.86 0 0 0-2.2.84c-.75.33-1.5.62-2.29.82l-.12-.44z"/>
              </g>
            </g>
            <g>
              <path d="M107.62 116.94c.2-.5.38-1.59.65-2.58-.17-.54-.7-.97-.9-2-.1-.58-.07-1.25.1-1.94.6-2.2 2.41-3.52 3.97-4.99.3-.27.6-.54.92-.77.1-.07.3-.24.42-.2.25.1.23.58.23.8 0 1.1.1 2.18.05 3.27-.03.8-.03 1.57-.2 2.33a5.2 5.2 0 0 1-2.09 3.2c-.74.48-1.36.28-1.76.57-.22.9.08 1-.12 1.96"/>
              <g>
                <path stroke="none" fill="#000" d="M108.81 114.56c.48-1.39 1.32-2.6 1.84-3.97.5-1.34.77-2.8 1.29-4.14-.22.7-.42 1.39-.55 2.1-.15.73-.27 1.45-.5 2.14-.41 1.39-1.2 2.63-1.6 4.02l-.48-.15z"/>
              </g>
            </g>
          </g>
          <g>
            <path stroke="none" fill="#000" d="M93.54 125.84c.3.52.22 1.22 0 1.76a3.38 3.38 0 0 1-1.04 1.4l.27-.82c.32-.75.64-1.54.77-2.34z"/>
          </g>
        </g>
      </g>
      <g>
        <path d="M89.32 113.47a112.44 112.44 0 0 0 5.11 5c.62.58 1.24.93 1.96 1.35.62.37 1.29.62 1.96.92 1.16.52 2.28 1.14 3.32 1.86.42.3 1.34.4 1.79.66.64.4 1.39.62 2.06.92.37.18.69.35.99.6.32.25.57.2.94.32.2.07.37.2.47.37.1.18.1.4.13.6.02.82-.15 1.63.07 2.43.1.37.35.64.42 1.01l.22 1.32c-.02-.3-.59-.45-.79-.57l-1.14-.84c-.92-.7-1.79-1.44-2.65-2.21-1.79-1.61-3.4-3.18-5.46-4.42-.67-.4-1.24-.91-1.93-1.26a24.28 24.28 0 0 1-9.1-7.57"/>
        <g>
          <g>
            <path d="M98.15 121c-.17-.51-.35-2.08-.6-3.07.2-.54.72-.96.95-1.98.12-.57.1-1.24-.08-1.94-.54-2.2-2.33-3.57-3.89-5.05l-.9-.8c-.1-.07-.27-.25-.41-.2-.25.1-.25.57-.25.8-.03 1.09-.15 2.15-.13 3.27.03.8 0 1.56.15 2.36a5.2 5.2 0 0 0 2.04 3.25c.71.5 1.36.3 1.76.59.22.9-.35 1.49-.18 2.46"/>
            <g>
              <path stroke="none" fill="#000" d="M96.51 118.26c-.37-1.4-1.11-2.66-1.53-4.05-.4-1.41-.52-2.85-.97-4.24a22.07 22.07 0 0 1 .62 2.09 15.8 15.8 0 0 0 1.46 4.04c.32.64.65 1.31.87 2.03l-.45.13z"/>
            </g>
          </g>
          <g>
            <path d="M74 86.83c-.08-.6.24-1.96.2-3.1.27-.5.79-.79 1.16-1.8.2-.58.3-1.27.27-2.07-.1-2.5-1.41-4.53-2.53-6.6a26.54 26.54 0 0 0-.64-1.13c-.08-.1-.2-.37-.32-.35-.25.02-.33.52-.35.74-.2 1.14-.5 2.26-.67 3.43-.13.84-.27 1.66-.27 2.53a7.2 7.2 0 0 0 1.21 4.09c.55.77 1.14.74 1.44 1.19.02 1.02-.3 1.29-.32 2.35"/>
            <path d="M76.08 87.63c-.05-.62.4-2.11.4-3.33.34-.54 1.01-.89 1.53-1.98a5.46 5.46 0 0 0 .45-2.2c.02-2.69-1.49-4.74-2.73-6.9l-.72-1.17c-.07-.1-.22-.37-.37-.37-.3.03-.42.57-.47.82-.32 1.24-.75 2.43-1.02 3.67-.2.9-.42 1.79-.47 2.7a6.53 6.53 0 0 0 1.24 4.3c.65.76 1.36.71 1.69 1.18-.03 1.07-.42 1.4-.52 2.53"/>
            <path d="M73.65 97.3c-.1-.62.25-2.13.15-3.35.32-.57.94-.97 1.39-2.08.24-.65.34-1.42.3-2.26-.18-2.65-1.84-4.61-3.23-6.67-.25-.37-.52-.77-.82-1.12-.07-.1-.25-.34-.4-.32-.3.05-.37.6-.42.84-.22 1.27-.57 2.48-.74 3.75-.13.92-.3 1.81-.27 2.73A6.4 6.4 0 0 0 71.17 93c.7.72 1.41.62 1.76 1.07.05 1.06-.32 1.4-.35 2.55"/>
            <path d="M77.67 101.34c-.48-.42-1.15-1.8-1.99-2.7-.12-.65.15-1.34-.25-2.5a5.61 5.61 0 0 0-1.19-1.94c-1.8-1.96-4.31-2.46-6.7-3.18-.44-.12-.89-.27-1.33-.34-.13-.03-.42-.13-.52 0-.2.22.1.7.22.92.62 1.11 1.12 2.28 1.79 3.37.47.8.89 1.59 1.5 2.3a6.45 6.45 0 0 0 3.85 2.29c1 .12 1.5-.4 2.04-.28.72.8.62 1.32 1.34 2.21"/>
            <g>
              <path stroke="none" fill="#000" d="M75.33 84.38c0-1.69-.47-3.35-.52-5.06-.02-1.71.23-3.4.13-5.11.05.84.1 1.71.07 2.55-.07 1.72.05 3.38.45 5.04.17.84.3 1.69.35 2.55l-.48.03z"/>
            </g>
          </g>
          <g>
            <path d="M75.06 91.47c-.2-.6-.1-2.16-.4-3.32.23-.62.82-1.14 1.07-2.33.15-.67.13-1.44-.07-2.26-.62-2.6-2.66-4.2-4.42-5.95a18.28 18.28 0 0 0-1.01-.94c-.1-.08-.33-.3-.48-.25-.3.1-.27.67-.27.92-.02 1.28-.17 2.55-.15 3.84.03.92 0 1.83.18 2.75a6.1 6.1 0 0 0 2.3 3.82c.85.6 1.54.35 2.01.72.25 1.04-.1 1.46.08 2.58"/>
            <g>
              <path stroke="none" fill="#000" d="M73.55 88.52c-.42-1.64-1.3-3.12-1.74-4.76-.44-1.66-.6-3.35-1.09-4.99.27.8.5 1.62.7 2.46a19 19 0 0 0 1.63 4.76c.37.77.72 1.56.97 2.38l-.47.15z"/>
            </g>
          </g>
          <g>
            <path d="M73.82 95.96c.25-.55.22-2 .6-3.1-.18-.6-.72-1.12-.87-2.26-.1-.64-.03-1.36.22-2.1.77-2.39 2.83-3.75 4.64-5.26l1.04-.82c.1-.08.32-.27.47-.2.28.12.23.65.23.87-.08 1.19 0 2.4-.13 3.6-.07.86-.12 1.7-.35 2.57a5.85 5.85 0 0 1-2.45 3.43c-.84.5-1.51.22-1.96.52-.3.96 0 1.36-.25 2.43"/>
            <g>
              <path stroke="none" fill="#000" d="M75.01 93.13c.6-1.51 1.59-2.8 2.2-4.26.63-1.47.98-3.05 1.65-4.5-.6 1.5-.85 3.08-1.4 4.6-.27.77-.64 1.48-1.01 2.18a13.99 13.99 0 0 0-.97 2.16l-.47-.18z"/>
            </g>
          </g>
          <g>
            <path d="M74.59 98.91c.35-.5.65-1.9 1.22-2.9-.03-.62-.4-1.24-.3-2.38a4.9 4.9 0 0 1 .67-2.03c1.21-2.19 3.4-3.08 5.38-4.2.37-.2.74-.42 1.14-.57.1-.05.35-.2.47-.1.22.18.08.67 0 .9-.32 1.16-.52 2.33-.9 3.5-.26.81-.46 1.66-.86 2.42a5.7 5.7 0 0 1-2.98 2.83c-.86.3-1.4-.1-1.9.13-.48.86-.3 1.33-.75 2.3"/>
            <g>
              <path stroke="none" fill="#000" d="M76.3 96.4c.87-1.33 2.06-2.4 2.95-3.71.9-1.3 1.57-2.76 2.48-4.05a16.99 16.99 0 0 0-1.14 2.09c-.35.72-.7 1.44-1.09 2.1-.82 1.37-1.98 2.49-2.75 3.85L76.3 96.4z"/>
            </g>
          </g>
          <g>
            <path d="M76.18 101.54c-.35-.52-.65-2.06-1.24-3.1.05-.67.5-1.31.42-2.53a5.3 5.3 0 0 0-.67-2.16c-1.27-2.35-3.67-3.35-5.83-4.59l-1.24-.64c-.12-.05-.4-.2-.52-.12-.25.17-.1.72-.02.96.32 1.24.5 2.5.86 3.75.28.9.48 1.76.9 2.6a6.1 6.1 0 0 0 3.22 3.08c.97.34 1.59-.08 2.1.15.5.94.28 1.43.75 2.48"/>
            <g>
              <path stroke="none" fill="#000" d="M73.95 99.08c-.82-1.46-2.06-2.67-2.93-4.14-.87-1.48-1.44-3.07-2.38-4.51a28.27 28.27 0 0 1 1.31 2.18 18.25 18.25 0 0 0 2.85 4.17c.55.64 1.1 1.31 1.57 2.03l-.42.27z"/>
            </g>
          </g>
          <g>
            <path d="M80.82 109.1c-.23-.54-1.27-1.56-1.79-2.58-.55-.32-1.27-.32-2.18-1.01a5.33 5.33 0 0 1-1.37-1.64c-1.19-2.18-.79-4.51-.67-6.8.03-.42.05-.84.13-1.26.02-.12.02-.4.17-.45.27-.1.6.3.77.48.82.89 1.69 1.68 2.48 2.62.57.67 1.14 1.3 1.59 2.04a5.73 5.73 0 0 1 .8 4.04c-.2.9-.85 1.14-.93 1.66.47.87.97.97 1.57 1.86"/>
            <path d="M83.02 109.3c-.2-.57-1.14-1.66-1.58-2.7-.53-.35-1.24-.42-2.09-1.2a5.16 5.16 0 0 1-1.21-1.73c-1.02-2.28-.45-4.56-.15-6.82.05-.42.12-.84.22-1.24.03-.12.08-.4.2-.44.27-.08.57.34.72.54.74.94 1.56 1.81 2.26 2.8.5.7 1.04 1.37 1.43 2.16.62 1.24.9 2.8.5 4.1-.27.89-.92 1.09-1.04 1.58.42.92.9 1.04 1.41 1.99"/>
            <path d="M89.05 119.12c-.22-.54-1.27-1.56-1.79-2.58-.54-.32-1.26-.32-2.18-1.01a5.33 5.33 0 0 1-1.36-1.64c-1.2-2.18-.8-4.51-.67-6.8.02-.42.05-.84.12-1.26.03-.12.03-.4.17-.45.28-.1.6.3.77.48.82.89 1.69 1.68 2.48 2.62.57.67 1.14 1.3 1.6 2.04a5.73 5.73 0 0 1 .78 4.04c-.2.9-.84 1.14-.91 1.66.47.87.96.97 1.56 1.86"/>
            <g>
              <path stroke="none" fill="#000" d="M86.67 115.45c-.4-1.39-1.17-2.63-1.61-4.01-.43-1.42-.57-2.86-1.05-4.25.25.67.48 1.37.67 2.09a15.48 15.48 0 0 0 1.54 4.02c.35.64.67 1.31.92 2l-.47.15z"/>
            </g>
            <g>
              <path stroke="none" fill="#000" d="M82.03 106.45c-.57-1.49-.7-3.1-1.21-4.59-.53-1.49-1.3-2.9-1.77-4.39.3.75.6 1.47.97 2.16.37.7.75 1.41 1.04 2.13.6 1.47.82 3.05 1.44 4.52l-.47.17z"/>
            </g>
          </g>
          <g>
            <path d="M82.23 108.43c-.52-.37-1.32-1.68-2.26-2.48-.17-.64 0-1.38-.47-2.53a5.38 5.38 0 0 0-1.39-1.8c-2-1.77-4.59-1.89-7.04-2.26a12.5 12.5 0 0 0-1.39-.18c-.12 0-.45-.05-.52.08-.17.25.15.7.3.92.72 1.06 1.34 2.18 2.1 3.2.55.74 1.07 1.48 1.74 2.13a6.25 6.25 0 0 0 4.1 1.78c1.01 0 1.46-.62 2.03-.6.79.73.77 1.25 1.56 2.07"/>
            <g>
              <path d="M85.8 113.57c-.6-.25-1.93-2.11-3-2.66-.32-.6-.32-1.36-1.04-2.33a5.46 5.46 0 0 0-1.76-1.44c-2.36-1.24-4.91-.76-7.4-.57-.46.03-.91.08-1.38.15-.13.03-.45.05-.5.2-.12.3.32.65.5.82.94.87 1.8 1.81 2.8 2.63.72.6 1.39 1.21 2.18 1.69a6.23 6.23 0 0 0 4.4.79c.98-.25 1.28-.94 1.85-1.04.94.5.77 1.29 1.74 1.88"/>
              <g>
                <path stroke="none" fill="#000" d="M82.33 112c-1.51-.76-3.2-1.09-4.74-1.8-1.54-.75-2.9-1.77-4.46-2.46a24.55 24.55 0 0 1 2.3 1.1c1.5.83 3.03 1.48 4.7 1.9.8.22 1.63.5 2.42.84-.02-.02-.22.43-.22.43z"/>
              </g>
            </g>
            <g>
              <path stroke="none" fill="#000" d="M79.28 106.92c-1.3-1.09-2.85-1.8-4.2-2.85-1.3-1.1-2.42-2.38-3.79-3.4a20.58 20.58 0 0 1 1.99 1.59 18.52 18.52 0 0 0 4.11 2.93c.75.4 1.5.84 2.19 1.36l-.3.37z"/>
            </g>
          </g>
          <g>
            <path d="M97.9 121.75c-.6-.05-2.23.42-3.37.4-.52.35-.84 1.04-1.86 1.54a4.54 4.54 0 0 1-2.08.44c-2.5.03-4.47-1.51-6.45-2.75a10.6 10.6 0 0 1-1.1-.74c-.1-.08-.34-.23-.34-.4.02-.3.55-.42.77-.47 1.16-.32 2.28-.75 3.45-1.02.84-.2 1.66-.42 2.55-.47a5.74 5.74 0 0 1 4.02 1.26c.72.65.67 1.37 1.11 1.72 1-.03 1.05-.43 2.14-.52"/>
            <g>
              <path stroke="none" fill="#000" d="M94.6 121.5c-1.6-.1-3.15-.62-4.73-.76-1.59-.13-3.2.02-4.79-.15.8.02 1.59.02 2.38-.03.8-.05 1.59-.12 2.4-.1 1.6.05 3.16.52 4.74.52v.52z"/>
            </g>
          </g>
          <g>
            <path d="M92.5 118.35c-.57-.17-2.04.03-3.15-.22-.57.25-1.02.84-2.14 1.14a4.71 4.71 0 0 1-2.13.03c-2.45-.47-4.07-2.36-5.78-4a16.89 16.89 0 0 1-.94-.94c-.07-.1-.3-.3-.25-.44.08-.3.62-.3.85-.33 1.19-.07 2.38-.3 3.6-.32.86-.02 1.7-.1 2.57.03 1.39.2 2.83.91 3.7 2.03.6.77.4 1.49.76 1.88 1 .18.87-.17 1.94-.05"/>
            <g>
              <path stroke="none" fill="#000" d="M89.54 117.49c-1.56-.4-2.95-1.24-4.48-1.69-1.54-.45-3.15-.6-4.67-1.07 1.57.43 3.15.47 4.74.82.8.18 1.54.47 2.28.75.75.27 1.49.54 2.26.69l-.13.5z"/>
            </g>
          </g>
          <g>
            <path d="M92.35 116.94c-.2-.5-.37-1.59-.65-2.58.18-.54.7-.97.9-2 .1-.58.07-1.25-.1-1.94-.6-2.2-2.41-3.52-3.97-4.99a8.85 8.85 0 0 0-.92-.77c-.1-.07-.3-.24-.42-.2-.25.1-.22.58-.22.8 0 1.1-.1 2.18-.05 3.27.02.8.02 1.57.2 2.33a5.2 5.2 0 0 0 2.08 3.2c.74.48 1.36.28 1.76.57.22.9-.08 1 .12 1.96"/>
            <g>
              <path fill="#000" stroke="none" d="M90.69 114.7c-.4-1.38-1.17-2.62-1.62-4-.42-1.42-.57-2.86-1.04-4.25.25.67.47 1.36.67 2.08a15.48 15.48 0 0 0 1.54 4.02c.35.65.67 1.32.92 2.01l-.47.15z"/>
            </g>
          </g>
        </g>
        <g>
          <path stroke="none" fill="#000" d="M106.43 125.84c.13.82.45 1.6.77 2.34l.28.81a3.37 3.37 0 0 1-1.05-1.39c-.22-.57-.3-1.24 0-1.76z"/>
        </g>
      </g>
    </g>
    <g>
      <path class="secondary" stroke-width=".62" stroke-linejoin="round" d="M101.32 122.92c-.99 1.73-1.63 6.45-1.28 8.48.3 1.66.86 6.17-1.84 8.28-.05-1.04 1-4.61-.27-6.1-.8 3.08-2.01 5.9-4.94 6.23 5.14-7.8 2.18-13.2 6.4-17.02"/>
      <path class="secondary" stroke-width=".62" stroke-linejoin="round" d="M99.49 124.95c.94 1.44.92 3.27.94 4.99.03 1.7.4 5.68 1.61 6.87.08-.87.05-3.97.48-4.74.71 2.55 1.78 4.54 4.7 4.76-4.9-6.4-2.62-10.96-6.71-14.04"/>
      <path class="secondary" stroke-width=".62" stroke-linejoin="round" d="m98.52 119.82.03-.1c.17-.7 1.41-.7 1.9-.45.3.15.73.65 1.07.55-.3.1.87 1.93.85 2.16-.05.37-.4.71-.55 1.06-.17.4-.3.82-.35 1.24a2.1 2.1 0 0 0-1.8.5l-.23.15c-.2.05-.35-.13-.47-.28a5.88 5.88 0 0 0-1.24-1.11c-.25-.18-.57-.37-.62-.7-.05-.4.27-.54.5-.77.32-.34.59-.76.76-1.21.18-.4.1-.72.15-1.04z"/>
      <g>
        <path stroke="none" fill="#000" d="m98.7 122.82.44-.9c.1-.22.18-.52.4-.74.54-.52 1.34.03 1.34.67.02.42-.13.72-.22 1.04-.15-.32-.15-.7-.28-.96-.1-.28-.37-.53-.57-.2a2.18 2.18 0 0 1-1.11 1.09z"/>
      </g>
    </g>
  </g><g id="deerHeadCaboshed" stroke-width=".3" source="http://wappenwiki.org" license="https://creativecommons.org/licenses/by-nc-sa/3.0">
    <path d="M95.11 134.69c.47.9.87 3.72 1.6 4.43a4.57 4.57 0 003.28 1.19c1.07 0 2.47-.4 3.28-1.19.73-.71 1.13-3.54 1.6-4.43"/>
    <path d="M107.14 107.56c2.16-1.38 5.93-3.43 8.48-3.86 1.31-.23 2.73-.21 4.05-.32 3.17-.26 6.24-1.23 8.64-3.77.65.59.69 3.04-.01 4.71a12.26 12.26 0 01-3.79 4.85 11.59 11.59 0 01-6.38 2.37c-3.49.17-6.12-1.51-8.49-.91m-16.87-3.07c-2.16-1.38-5.93-3.43-8.48-3.86-1.31-.23-2.73-.21-4.05-.32-3.17-.26-6.24-1.23-8.64-3.77-.65.59-.69 3.04.01 4.71a12.26 12.26 0 003.79 4.85 11.59 11.59 0 006.38 2.37c3.49.17 6.12-1.51 8.49-.91"/>
    <path d="M100.01 99.25h0c1.4 0 2.84-.65 4.56-.19 1.02.27 2.8.88 2.94 1.88.1.71.05-.07.36.58.31.64.13.69.78.97.59.25.77.25 1.16.25.72 0 1.64 1.39 1.62 2 1.25 3.85.36 4.6.47 5.69 1.35 4.37-.28 4.15-.28 6.46 0 1.55-.99 3.35-1.39 4.26-.49 1.35-3.5 4.31-3.78 7.9-.46 3.23-.83 3.99-.83 3.99s.48.96 0 2.05c-.34.77-.67 1-1.3 1.21-1.11.18-1.78 1.77-4.31 1.76-2.53.01-3.21-1.59-4.31-1.76-.63-.2-.96-.43-1.3-1.21-.49-1.09 0-2.05 0-2.05s-.36-.75-.83-3.99c-.28-3.59-3.29-6.56-3.78-7.9-.4-.91-1.39-2.71-1.39-4.26 0-2.31-1.62-2.08-.28-6.46.11-1.08-.78-1.83.47-5.69-.02-.61.9-2 1.62-2 .39 0 .57 0 1.16-.25.66-.28.47-.32.78-.97.31-.64.26.13.36-.58.14-.99 1.92-1.6 2.94-1.88 1.7-.46 3.14.19 4.56.19h-.02"/>
    <path class="secondary" d="M105.89 100.69c-.19.05-1.01-.54-1.69-.1-.26.16-.46.49-.52.79-.06.3-.05.64.1.9s.67.62.97.52c-.08.45-.07 1.12 1.33 1.93.55.32 1.65.2 1.65.2.07.01.32.44.95.64.5.16.92.05 1.22-.38s.33-1.02.15-1.52a1.9 1.9 0 00-.4-.67c-.05-.06-.1-.11-.13-.18-.03-.08-.02-.16-.01-.24.06-.43.4-.75.55-1.16.48-.68 1.39-.89 2.05-1.92 0 0 2.51-.69 4.51-2.46.98-.62 1.92-2.23 2.49-2.69.85-.6 1.65.24 2.85.75 1.37.57 4.3.49 6.23-1.64 1.25-1.49 1.9-2.42 3.19-3.19 1.16-.7 2.14-.8 2.29-.84.21-.06.39-.25-.01-.46a4.27 4.27 0 00-2.49-.32c-1.69.21-2.57.88-3.99 2-1.19.95-2.53 1.69-3.79.62-.75-.63-.03-1.9.62-2.7.99-1.22 2.09-4.32 2.39-4.71 1.46-1.46 1.89-.62 3.58-2.45 1.4-1.52 1.53-3.25 1.76-4.65.53-3.26 2.39-3.6 2.67-3.78.28-.18.34-.51-.1-.54a4.74 4.74 0 00-3.51 1.43c-1.91 2.07-1.28 3.99-2.85 5.32-.57.49-1.37.11-1.21-.92.25-1.62-.66-5.5.82-6.63.85-.65.48-.2 1.67-1.11 2-1.53.38-5.05 3.33-7.31.3-.26.2-.46-.2-.48-.47-.13-1.51.09-2.27.68-2.17 1.66-1.32 3.52-2.67 4.71-.43.36-1.23.77-2.21.27-2.59-1.49-2.38-4.95-3.88-6.83a5.1 5.1 0 00-2.73-1.51c-1.59-.35-2.35.46-2.08.52a4.2 4.2 0 012.65 1.54c1.04 1.4.49 3.78 2.07 5.93 1.31 1.78 1.59 1.8 2.11 3.93.4 1.17.1 3.37-.02 3.99h0a3.86 3.86 0 00-2.96-1.79c-1.97-.28-2.62-1.53-3.07-2.21-1.25-1.92-2.34-3.25-4.22-3.22-1.07.02-.39.53-.17.64 2.03.97 1.95 2.89 3.08 5.22a4.79 4.79 0 003.25 2.65c1.35.33 3.63 2.06 3.84 3.7-.29 1.93-.68 3.9-3.78 7.81-1.42 1.25-2.66 4.77-7.43 6.05-.23-1.28-1.48-2.34-2.62-3.52-1.11-1.35-.41-3.44-.11-4.32.85-2.49 1.15-4.92-.04-5.95-.91-.71-.71.04-.66.32.48 2.48-1.23 3.8-2.51 6.48a5.45 5.45 0 000 4.62c.59 1.42 1.67 1.95 2.01 4.1-.01 1.98-.86 2.51-2.05 4.14zm-11.87 0c.19.05 1.01-.54 1.69-.1.26.16.46.49.52.79.06.3.05.64-.1.9-.16.27-.67.62-.97.52.08.45.07 1.12-1.33 1.93-.55.32-1.65.2-1.65.2-.07.01-.32.44-.95.64-.5.16-.92.05-1.22-.38a1.7 1.7 0 01-.15-1.52c.09-.25.22-.48.4-.67.05-.06.1-.11.13-.18.03-.08.02-.16.01-.24-.06-.43-.4-.75-.55-1.16-.48-.68-1.39-.89-2.05-1.92 0 0-2.51-.69-4.51-2.46-.98-.62-1.92-2.23-2.49-2.69-.85-.6-1.65.24-2.85.75-1.37.57-4.3.49-6.23-1.64-1.25-1.49-1.9-2.42-3.19-3.19-1.16-.7-2.14-.8-2.29-.84-.21-.06-.39-.25.01-.46a4.27 4.27 0 012.49-.32c1.69.21 2.57.88 3.99 2 1.19.95 2.53 1.69 3.79.62.75-.63.03-1.9-.62-2.7-.99-1.22-2.09-4.32-2.39-4.71-1.46-1.46-1.89-.62-3.58-2.45-1.43-1.53-1.56-3.26-1.79-4.66-.53-3.26-2.39-3.6-2.67-3.78-.28-.18-.34-.51.1-.54.43-.03 2.23.05 3.5 1.43 1.91 2.07 1.28 3.99 2.85 5.32.57.49 1.37.11 1.21-.92-.25-1.62.66-5.5-.82-6.63-.85-.65-.48-.2-1.67-1.11-2-1.53-.38-5.05-3.33-7.31-.3-.26-.2-.46.2-.48.47-.13 1.51.09 2.27.68 2.17 1.66 1.32 3.52 2.67 4.71.43.36 1.23.77 2.21.27 2.59-1.49 2.38-4.95 3.88-6.83a5.1 5.1 0 012.73-1.51c1.59-.35 2.35.46 2.08.52a4.2 4.2 0 00-2.65 1.54c-1.04 1.4-.49 3.78-2.07 5.93-1.31 1.78-1.59 1.8-2.11 3.93-.4 1.17-.1 3.37.02 3.99h0a3.86 3.86 0 012.96-1.79c2.01-.28 2.66-1.52 3.11-2.21 1.25-1.92 2.34-3.25 4.22-3.22 1.07.02.39.53.17.64-2.03.97-1.95 2.89-3.08 5.22a4.79 4.79 0 01-3.25 2.65c-1.35.33-3.63 2.06-3.84 3.7.29 1.93.68 3.9 3.78 7.81 1.42 1.25 2.66 4.77 7.43 6.05.23-1.28 1.48-2.34 2.62-3.52 1.11-1.35.41-3.44.11-4.32-.85-2.49-1.15-4.92.04-5.95.91-.71.71.04.66.32-.48 2.48 1.23 3.8 2.51 6.48a5.45 5.45 0 010 4.62c-.59 1.42-1.67 1.95-2.01 4.1.01 1.99.86 2.52 2.05 4.15z"/>
    <g fill="#000" stroke="none">
      <path d="M96.76 137.35c.17.29.34.57.56.81.22.24.47.44.76.58.29.13.6.22.91.27a6.24 6.24 0 001.93-.01 3.02 3.02 0 001.69-.86c.23-.23.43-.5.61-.78-.12.31-.29.61-.5.87a2.8 2.8 0 01-.78.67c-.3.18-.63.29-.96.37a5.04 5.04 0 01-2.04.01 2.93 2.93 0 01-.98-.34 2.4 2.4 0 01-.76-.69 4.41 4.41 0 01-.44-.9zm16.66-28.26a5.74 5.74 0 013.58-3.01c2.76-1.05 5.83-1.23 8.43-2.7.72-.4 1.4-.9 1.88-1.58-.83 1.36-2.33 2.1-3.76 2.67-2.55 1-5.37 1.2-7.82 2.47a5.57 5.57 0 00-2.31 2.15z"/>
      <path d="M120.44 108.03c.44-.85.5-1.87.22-2.78.56-.3.29.68.35.99a3.48 3.48 0 01-.57 1.79zm-2.85-1.91c.46 1.2.1 2.56-.46 3.67.44-1.1.7-2.43.18-3.55l.28-.12zm-12.29 2.03c.3.08.7-.16.98-.26.35-.05.77-.74.94-.2-.59.27-1.25.57-1.91.49zm3.23 2.81c.38-.08.7-.3 1.05-.47.16.23.1.35-.17.35-.3.07-.58.14-.88.12zm4.62-4.61c-.11.34-.3.64-.54.9-.09-.37.19-.8.54-.9zm-1.25 1.5c.08.41.03.84-.09 1.24-.2-.38-.18-.9.09-1.24zm-25.41 1.24c-.86-1.6-2.6-2.46-4.27-2.96-2.84-.91-6-1.22-8.44-3.08a4.05 4.05 0 01-1.05-1.1c1.28 1.53 3.27 2.16 5.11 2.7 2.4.7 5 .99 7.09 2.44a4.93 4.93 0 011.56 2z"/>
      <path d="M79.47 108.03a3.86 3.86 0 01-.51-2.86c.63.04-.06.84.12 1.24.01.56.1 1.13.39 1.62zm3.13-1.78c-.55 1.12-.26 2.45.18 3.55-.54-1.12-.94-2.46-.46-3.67l.28.12zm12.01 1.9c-.5.18-1.17-.16-1.66-.33-.51 0-.01-.7.2-.19.44.25.93.54 1.45.54l.01-.01zm-3.23 2.81c-.33-.03-1.1 0-1.13-.3.03-.32.27-.06.44 0 .22.12.44.25.69.3zm-4.62-4.61c.5-.04.8 1.35.3.59a2.78 2.78 0 01-.3-.59zm1.25 1.5c.3.25.28 1.18.06 1.15-.1-.37-.13-.77-.06-1.15zm17.28 8.87c-.82 2.17 0 4.57-.86 6.74-.4 1.15-.98 2.3-.82 3.56.03.75.33 1.45.66 2.12a4.64 4.64 0 01-.82-3.6c.31-1.39 1.04-2.66 1.1-4.1.16-1.58-.01-3.26.74-4.72zm-2.98 17.13c.2-.77 1.3-1.23 1.9-.59.24.24.73.98.67 1.01-.51-.33-.82-1.09-1.52-1.02-.41.04-.76.32-1.05.6z"/>
      <path d="M103.28 133.79c.17.36-.03.77-.22 1.08-.15.28-.65.69-.82.67.33-.5.7-.96.97-1.5a.84.84 0 00.07-.25zm-5.66.06c-.35-.35-.86-.71-1.39-.57-.54.2-.77.79-1.27 1.05.36-.46.57-1.11 1.17-1.33.62-.2 1.3.26 1.49.85z"/>
      <path d="M96.65 133.79c.32.63.73 1.27 1.08 1.8-.71-.52-1.08-.68-1.08-1.8z"/>
      <path fill="#f6f6f6" stroke="#000" d="M107.38 113.82c0 .37.59 1.05 1.98 1.05 1.07 0 1.59-2.24 1.59-2.43 0-.19-.03-1.18-.98-1.18-1.02-.01-2.59 2.59-2.59 2.56z"/>
      <path d="M107.51 108.27a6.57 6.57 0 00-3 1.22c-.07.04-.3.25-.1.01a3.07 3.07 0 013.1-1.23zm3.23 2.07c-.38.2-.82.06-1.22.16-.14-.03-.42.23-.42.12.13-.4.6-.5.97-.45.23.03.45.11.67.17z"/>
      <path d="M110.62 109.53a2 2 0 00-2.24 1.38 4.91 4.91 0 01-1.26 2.21c-.42.46-.9.86-1.45 1.16 1.03-.92 2.03-2 2.4-3.37a1.99 1.99 0 012.1-1.49c.15.02.3.05.45.11zm-21.41 0c1-.4 2.21.25 2.5 1.28.23.69.5 1.37.98 1.92.42.58.93 1.1 1.46 1.56a5.63 5.63 0 01-2.64-3.16 2.06 2.06 0 00-2.3-1.6zm21.62 5.24c-.38.97-1.61 1.36-2.54.98-.3-.29-1.23.42-.59-.13.61-.28 1.3.18 1.92-.09.47-.12.9-.39 1.21-.76zm-3.26-.96c-.4.69-.93 1.45-1.11 2.24-.04-.83.48-1.65.83-2.37l.28.13zm2.4-2.71c.58-.03 1.21.16 1.59.62-.41-.4-1.33-.18-1.58-.46l-.01-.16z"/>
      <path stroke="#000" stroke-width=".1" d="M108.27 112.72c.09.36.35.82.24 1.37 0 .01.2-.05.37-.21.19-.18.36-.45.43-.68.15-.5.11-1.12-.09-1.64"/>
      <path fill="#f6f6f6" stroke="#000" d="M92.55 113.82c0 .37-.59 1.05-1.98 1.05-1.07 0-1.59-2.24-1.59-2.43 0-.19.03-1.18.98-1.18 1.03-.01 2.59 2.59 2.59 2.56z"/>
      <path d="M92.42 108.27c1.1-.26 2.34.23 3.02 1.13.07.08.31.42 0 .1a6.35 6.35 0 00-3.02-1.23zm-3.22 2.07c.47-.15 1.1-.32 1.5.08.1.08.21.39 0 .18-.47-.24-1.03-.02-1.5-.26zm-.09 4.43c.56.67 1.5.96 2.34.77.37-.07.86-.05 1.03.35-.34-.35-.85-.14-1.25-.04-.83.17-1.8-.27-2.12-1.08zm3.52-1.1c.35.69.82 1.45.86 2.22-.01.4-.1-.26-.18-.35-.22-.59-.62-1.18-.93-1.72l.25-.14zm-2.69-2.27a2.75 2.75 0 00-1.58.32c.37-.46 1.01-.65 1.59-.62l-.01.3z"/>
      <path stroke="#000" stroke-width=".1" d="M91.56 112.62c-.09.36-.35.92-.24 1.47a.8.8 0 01-.37-.21 1.7 1.7 0 01-.43-.68c-.15-.5-.11-1.12.09-1.64"/>
      <path d="M95.76 111.2c.36-.16.66.34.64.65-.28.16-.44-.5-.64-.65zm.3 1.39c.4-.05.39.92.02.42a.54.54 0 01-.02-.42zm-.26.75c.37.07.15.96-.08.44a.46.46 0 01.08-.44zm-.25.99c.37.11-.03.86-.13.34a.42.42 0 01.13-.34zm3.52-2.69a7.33 7.33 0 01.9 4.42c-.09-.08-.1-.6-.16-.84a27.4 27.4 0 00-.74-3.58zm5.01-.44c-.22.19-.39.77-.65.68-.01-.32.27-.87.65-.68zm-.31 1.39c.24.25-.37.9-.3.33.01-.16.13-.3.3-.33zm.27.75c.34.2-.17.98-.2.37 0-.15.08-.29.2-.37zm.25.99c.36.2-.03.83-.14.3a.3.3 0 01.14-.3z"/>
      <path d="M100.76 111.64a36.78 36.78 0 00-.84 4.36c-.04.46-.07-.45-.08-.53a7.4 7.4 0 01.92-3.83zm4.18 14.36c-.05-.33-.1-.66-.12-1 .27.24.35.7.12 1zm.51-1.89c-.07-.3-.17-.6-.29-.9.37.1.5.6.29.9zm.87-1.15c-.1-.66-.36-1.28-.37-1.95.27.6.56 1.28.37 1.95zm.63-1.96c-.06-.55-.09-1.1-.13-1.66.3.48.35 1.14.13 1.66zm-1.48 12.06c-.23-.71-.89-1.3-1.67-1.27-.46-.05-.95.19-1.31.29.84-.82 2.47-.63 3 .45.15.3.4.43-.02.53zm-3.41-.95c.15.26-.45.63-.4.37.11-.14.24-.28.4-.37zm-.84.16c-.18.47-1.4.48-.5.15.16-.05.32-.14.5-.15zm-6.68-15.55c1.06 2.06.32 4.5 1.15 6.63.47 1.32 1.05 2.71.65 4.12-.06.5-.62 1.47-.73 1.56a4.9 4.9 0 00.25-4.36 9.85 9.85 0 01-.9-4.02c-.02-1.32.08-2.68-.42-3.93zm.36 9.28c-.25-.27-.1-.9.13-.96-.03.32-.07.64-.13.96zm-.51-1.9c-.22-.28-.07-.79.29-.88-.12.29-.22.58-.3.89zm-.88-1.14c-.18-.68.13-1.34.38-1.95 0 .66-.27 1.3-.38 1.95zm-.63-1.96c-.25-.46-.09-1.43.13-1.57-.04.52-.06 1.05-.13 1.57zm1.33 11.97c.24-.56.62-1.12 1.24-1.3a2.27 2.27 0 011.68.16c.09.07.36.18.27.29a2.25 2.25 0 00-1.85-.22c-.54.17-.8.67-1 1.16-.04.05-.19-.04-.25-.05l-.09-.04zm3.56-.86c.18.11.34.27.45.45-.25.07-.5-.2-.45-.45zm.84.16c.25.03.5.13.72.24l.2.12c-.34.1-.7-.1-.92-.36zm7.69-30.49c-.83-.33-1.33.67-1.56 1.02-.35-.6.95-1.46 1.56-1.02zm2.13 1.12c.96-.06.39 2.45.3 1.24-.06-.42-.1-.86-.3-1.24zm19.45-31.3c-.7.06-1.78 1.77-1.6 1.37.14-.4 1.26-2.03 1.6-1.37zm-4.81 15.46c-.42.84-1.3 1.43-1.44 2.39-.25.22-1.9 1.66-1.03.61 1.02-.63 1-1.97 2.04-2.62l.21-.19zm-5.81 5.34c-.14.73-2.3 1.17-1.07.52.35-.18.7-.37 1.07-.52zm9.04-12.53c-.67-.26-.53-1.75-.4-1.8.3.56.16 1.23.4 1.8zm-5.62 13.78c-.53 0-1.07.08-1.58.23.3-.54 1.14-.63 1.58-.23zm-9.33 2.44c-.64.1-.67.99-1.43.9-.56.28-1.58 1.26-.62.1.72-.25 1.3-1 2.05-1zm12.6-24.03c-.1-1.19-.84-2.16-1.33-3.2.85.78 1.66 2 1.33 3.2zm-12.02 27.51c.31-.64 1.5-1.65 1.54-1.88-.05.83-1 1.22-1.25 1.97l-.29-.09zm-18.32 2.21c.65-.51 2.09.67 1.43 1.06-.07-.56-.6-1.23-1.3-1.09l-.09.02zm-2.13 1.12c-.39.29-.16 1.91-.48 1.47-.21-.5-.08-1.25.48-1.47zM72.19 71.35c.66.17 1.7 1.98 1.4 1.64-.07-.74-1.85-1.13-1.4-1.64zm4.65 15.71c1.37.78 1.44 2.4 2.66 3.26.3.41-1.1-.63-1.25-.93-.12-.93-1.04-1.5-1.41-2.33zm5.81 5.34c.43.19 2.27 1.01 1.04.8-.42-.14-.8-.42-1.04-.8zm-9.04-12.53c.15-.66.55-2.8.5-1.06-.07.37-.04.93-.5 1.06zm5.62 13.78c.44-.43 1.27-.32 1.57.22a5.5 5.5 0 00-1.57-.22zm9.33 2.44c.83.18 1.7.68 2.32 1.32.45.62-1.1-.66-1.63-.72-.16-.29-.32-.54-.69-.6zm-12.6-24.03c-.33-1.21.48-2.41 1.33-3.2-.5 1.04-1.22 2.02-1.33 3.2zM87.7 99.67c-.27-.79-1.34-1.21-1.24-2.13-.15.75 2.14 1.73 1.24 2.13z"/>
    </g>
  </g><style xmlns="http://www.w3.org/1999/xhtml" type="text/css"></style></defs>  <g clip-path="url(#shield_955049365)"><rect class="field" x="0" y="0" width="200" height="200" fill="#000000"/><g class="division" clip-path="url(#division_955049365)"><rect x="0" y="0" width="200" height="200" fill="#004000"/></g><g class="charge" i="0" charge="laurelWreath" fill="#ffff2b" transform="translate(0 20)" stroke="#000" style="--secondary: #400000; --tertiary: #ffff2b;"><use xlink:href="#laurelWreath" xmlns:xlink="http://www.w3.org/1999/xlink" transform="translate(-62 -62) scale(1.62)"/></g><g class="charge" i="1" charge="deerHeadCaboshed" fill="#fafafa" transform="translate(0 -11)" stroke="#000" style="--secondary: #400000; --tertiary: #fafafa;"><use xlink:href="#deerHeadCaboshed" xmlns:xlink="http://www.w3.org/1999/xlink" transform="translate(-42 -42) scale(1.42)"/></g></g> <path class="grad" d="m 32.3,99.5 a 67.7,93.7 0 1 1 0,1.3 z" fill="url(#luster)" stroke="#333333" stroke-width="1" style="pointer-events: none;"/>  </svg>