<svg width="2048" height="2524" viewBox="0 0 200 200" xmlns="http://www.w3.org/2000/svg" xmlns:xlink="http://www.w3.org/1999/xlink" xmlns:dc="http://purl.org/dc/elements/1.1/" xmlns:rdf="http://www.w3.org/1999/02/22-rdf-syntax-ns#"><defs><clipPath id="shield_218442294"><path d="m 32.3,99.5 a 67.7,93.7 0 1 1 0,1.3 z"/></clipPath><clipPath id="division_218442294"><rect x="100" y="0" width="100" height="200"/></clipPath><style>.secondary {
      fill: var(--secondary);
    }
    .tertiary {
      fill: var(--tertiary);
    }</style><linearGradient id="luster" x1="0%" y1="100%" x2="95%" y2="10%">
            <stop stop-color="#000" stop-opacity=".3" offset="0"/>
            <stop stop-color="#ccc" stop-opacity="0" offset=".8"/>
            <stop stop-color="#fff" stop-opacity=".2" offset="1"/>
          </linearGradient><g id="mullet6Faceted" author="Azgaar" license="https://creativecommons.org/publicdomain/zero/1.0">
    <path d="M100 60l7.64 26.77 26-6.77-18.36 20 19.36 20-27-6.77L100 140l-7.64-26.77-27 6.77 19.36-20-19.36-20 27 6.77z"/>
    <path fill="#000" fill-opacity=".2" stroke-width=".2" d="M100 100l34-20-18.72 20H100l34.64 20-27-6.77L100 100v40l-7.64-26.77L100 100l-34.64 20 19.36-20H100L65.36 80l27 6.77L100 100V60l7.64 26.77z"/>
  </g><g id="wolfHeadErased" stroke-width=".324" source="http://wappenwiki.org/images/3/39/Balsic.svg" license="https://creativecommons.org/licenses/by-nc-sa/3.0">
    <path fill="#fff" d="M76.14 84.37c.93 3.76 3.54 5.13 3.8 4.82.27-.3-1.33-1.8-1.16-4.33"/>
    <path fill="#fff" d="M80.88 99.29c-.82-2.51.6-4.6.93-4.48.34.12-.22 1.97 1.03 3.83"/>
    <path class="secondary" d="M94.67 91.74c-2.17-1.14-6.88-2.79-9.57-2.3-6.43 1.17-7.2 4.05-11.33 4.8-4 .72-4.73-2.36-5.37-2.24-.32.2-.5 1.8.65 2.98 1.14 1.19 3.18 2.26 5.16 1.9 5.54-1 6.08-3.79 11.4-4.75 2.85-.52 8.04 1.09 9.54 1.97"/>
    <path d="M118.97 63.5a8.27 8.27 0 00-.45-1.61c-.3-.71-.74-1.59-1.53-1.7-.95-.13-1.18.24-2.25.58-.69.29-3.5.88-4.77 2.04l.82 3.65 8.18-2.97z"/>
    <path d="M116.48 63.48s-8.38-2.12-20.38.6c-1.94.45-2.07.57-3.61 1.8-.6.53-.42.74-1.07 1.52-2.2.74-.9 2.36-1.48 2.8-1.35.08-1.7 1.08-3.68 1.72a80.62 80.62 0 01-9.57 2.21c-1.12.17-3.16.63-4.22.89-.76 0-1.32.54-1.36.9-.06.65.14 1.37.33 2.16.3 1.37 1.26 2.07 1.38 2.58.1.4.37 1.78 1.07 2.8.3.42 3.82 1.62 7.15 2.17 3.84.64 5.42-.44 8.68 1.06 4.91 1.78 5.12 7.47 5.27 8.29.2 1.12-.63 1.72-1.35 2.06-1.01.5-2.96-.39-5.01 0-2.06.39-3.29 1.2-4.29 1.38-1.66.3-2.8.19-4.17.12-1.13.11-.84.28-.58.78a5.53 5.53 0 002.8 2.05c1.18.43 2.42.49 3.45.21.83-.22 1.23-.48 1.69-.77s2.25-.8 3.35-1c1.1-.2 2.94.04 3.52.02.1.52-.17 1.4-1.23 2.44-1.07 1.03-2.03 1.25-3.3 2.38-1.28 1.13-.36 2.25-1.98 3.68-.93.82-2.28.68-3.08.67-.26.23.43 1.4.53 1.52.85 1 1.43 1.02 1.96 1.16-1.7.09-3.05.04-4.82 2.43-1.78 2.39-4.23.9-4.38 1.04-.15.13.17 1.33 1.26 2.56.6.68 1.9 1 1.98 1.03-1.07.47-.43 2.31-1.16 3.38a3.57 3.57 0 01-4.23 1.14c1.52 2.62 3.6 3.06 5.08 2.9 2.9-.33 3.31-2.72 4.12-3.11-1.63 3.16-.15 5.31-3.51 8.31 6.24.88 8.65-5.4 9.86-5.55-1.45 2.27-.89 7.67-4.14 8.49 2.22 1.08 4.95.38 6.48-.7 2.77-1.96 3.89-4.34 4.1-4.17.28.85-1.45 3.95-1.14 6.57.13 1.1.66 3.8 2.12 4.95.52-4.39 4.7-5.92 6.9-12.07l.2-.62c.17.12.19.5.17.79-.03.72-.16 1.56-.07 2.63.14 1.67.84 2.75 2.78 4.4 1.34-5.67 3.38-4.4 4.86-9.68.04-.14.2-.3.25-.46a7.71 7.71 0 002.13 3.74 4.2 4.2 0 003.7 1.14c-1.33-3.15.42-6.42.65-10.2.01-.14-.05-.38.14-.44 1.4 3.37 5.56 3.78 6.94 2.41-2.85-1.97-1.2-5.8-1.5-8.67a5.2 5.2 0 00-.77-2.25c.25.19.84.44 1.3.62 1 .4 2.27.77 3.29-.08-2.97-1.82-1.44-5.99-2.28-8.14a5.5 5.5 0 00-1.2-1.92c.39.34 1.19.97 1.58 1.16a3 3 0 001.84.31c1.3-.1 2.26-.76 2.35-1.02-3.12-1.67-3.18-5.77-3.63-7.76-.1-.5-.43-1.34-.74-1.62.42.01.94.15 1.28.09 1.42-.25 2.15-.72 2.09-1.05-3.55-1.72-1.63-6.21-3.18-7.95a7.35 7.35 0 00-1.72-1.38c.62.15 1.6.14 2.01.05 1.3-.3 1.5-1.3 1.34-1.44-5.6-2.3-3.12-6.4-6.05-9.04"/>
    <path d="M117.9 75.9c1.52-.2 3.55-1.27 5.25-2.92m-7.38-9.27c-1.86.63-2.73 1.3-2.73 1.3m10.07 7.97c2.1-2.06 3.7-5.01 3.17-8.34-.14-.75-.38-1.7-1.13-1.98-.9-.34-1.2-.03-2.31.07-.74.14-2-.13-4.4.3-1.05.2-1.94.43-2.67.68"/>
    <path fill="#fff" d="M95.37 73.22s-.76.82-1.4 1.17c-.65.35-1.56.17-1.84-.26-.14-.29-.24-1.59.26-1.76.43-.23 2.98.85 2.98.85z"/>
    <g fill="#000" stroke="none">
      <path d="M115.7 72.28c1.36.68 2.83.89 4.29.96.02.07-.07.06-.11.08a4.77 4.77 0 01-4.07-.93c-.04-.04-.1-.07-.12-.11zm2.48-.95c1.32.45 2.73.21 4.05.35-1.39.3-3.17.55-4.06-.35zm4.18-7.25c-3.22.8-6.27 1.64-8.57 3.86 1.51-2.62 5.64-3.75 8.57-3.86zm-5.01 10.02c3.15-.85 5.85-2.9 7.36-5.69-.27 2.76-4.58 5.52-7.2 5.68-.04 0-.13.03-.16.01z"/>
      <path d="M92.77 72.66c.23 0 .43.37.44.84 0 .13 0 .25-.02.36-.05.3-.18.5-.35.5-.17.01-.32-.2-.4-.52a1.8 1.8 0 01-.04-.32c-.02-.47.15-.85.38-.86z"/>
      <path d="M95.43 73.07c.2.07.36.16.47.24-.1.2-.4.11-.59.06l.12-.3zm-2.26-5.44a2.68 2.68 0 013.48.34c-1.3-.41-2.48-.84-3.47-.33l-.01-.01zm-.96 6.63c-.4.27-.74.56-1.16.7.13-.43.63-.73.98-.96zm2.39-3.01c.75.79 1.82 1.03 2.8 1.32.02.06-.03.06-.07.05-1.1.07-2.28-.3-2.74-1.36zm-2.96 2.55c-.67.6-1.13 1.37-1.6 2.1.09-.97.86-1.84 1.6-2.1zm2.56 4.97c.2-.17.32-.38.46-.59.48-.94.52-2.07 1.17-2.92 1-1.19 2.58-1.45 3.99-1.38 0 .09-.16.05-.23.08-1.15.18-2.51.43-3.29 1.25-.63.64-.84 1.53-1.16 2.33-.2.48-.49.95-.93 1.23zm-2.74-10.25c-.14.41-.26.9-.05 1.3.15.25.5.35.76.2.51-.27.87-.79 1.44-.97.4-.16.85-.08 1.2.13.71.33 1.23.94 1.72 1.53.15.23.49.43.6.61-.36-.05-.75-.57-1.05-.8-.42-.4-.85-.82-1.4-1.06-.28-.14-.6-.24-.92-.12-.65.19-1.04.84-1.7.99-.49.1-.96-.38-.9-.86 0-.32.12-.62.26-.9.01 0 .03-.09.04-.05zm-1.8 4.16c-.62 1.22-.79 2.64-1.05 3.92-.2-1.36.05-2.98 1.05-3.92zm3.28-2.84c-.07.25-.19.48-.23.74-.27 1.3.56 1.03 1.33 1.56l.34.25c-.04.1-.18-.04-.27-.04-1.33-.26-2.3-.83-1.32-2.33l.15-.18z"/>
      <path d="M93.03 106.1a6.4 6.4 0 013.04-1.18c.88-.17 1.77-.35 2.59-.74a5.39 5.39 0 002.29-2.04c.11.05-.06.18-.08.26a4.84 4.84 0 01-1.84 1.92c-1.2.73-2.63.82-3.98 1.07-.71.12-1.4.36-2.02.72zm13.09 2.38c-.33.17-.68.32-1 .52a12.12 12.12 0 00-2.74 2.06c-1.04 1.03-1.93 2.2-2.98 3.22-.34.31-.7.6-1.09.85-.05-.1.16-.17.21-.26.7-.64 1.3-1.37 1.9-2.1.68-.82 1.37-1.66 2.2-2.35.55-.5 1.16-.91 1.81-1.24.5-.26 1-.49 1.53-.65l.16-.05zm-6.01.08c.5-.23 1-.48 1.49-.77.32-.21.66-.39.96-.63.4-.3.78-.6 1.13-.97.48-.46.88-1 1.24-1.56.34-.55.64-1.14.91-1.73.13-.25.25-.5.36-.77.11.03-.03.19-.03.27a9.02 9.02 0 01-2.24 4 7.28 7.28 0 01-2.38 1.64c-.46.23-.94.38-1.43.53zm10.45 5.52c1.57-2.93 4.22-3.16 4.63-6.81.71 3.48-3.38 4.5-4.61 6.8l-.01.01zm-.16-12.82c-1.18 4.2.93 8-2.43 10.35 2.57-1.84 1.02-7.9 2.16-9.88.08-.16.17-.32.27-.47zm2.59 21.62a14.58 14.58 0 003.14-8.28c.5 3.54-1.26 6.33-3.13 8.29l-.01-.01zm-8.59 1.57c.14-.8.7-1.46 1.27-2 1.52-1.35 3.34-2.34 4.69-3.87a7.67 7.67 0 001.33-2.07c.1.16-.14.5-.2.7a8.77 8.77 0 01-2.9 3.39c-.64.48-1.3.93-1.94 1.4-.8.6-1.66 1.21-2.11 2.14l-.14.31zm-7.57-.05a7.48 7.48 0 012.39-2.53c1.48-1.09 3.08-2.1 4.1-3.66.4-.62.72-1.28.9-2 .1-.2.07.12.03.2a5.98 5.98 0 01-.88 2.2 9.15 9.15 0 01-2.22 2.26c-1.14.84-2.37 1.56-3.42 2.5-.33.32-.64.65-.89 1.03zm-6.71-1.31a6.08 6.08 0 012.54-2.71c1.56-1 3.36-1.55 4.97-2.45.46-.27.9-.57 1.24-.99.07.07-.1.2-.14.3-.84.98-2.05 1.5-3.2 2.04-1.56.75-3.25 1.43-4.5 2.66-.35.34-.64.76-.91 1.15zm28.36-7.89a8.16 8.16 0 001.25-4.31c.16-2.76-1.24-5.05-.86-7.52.09 1.1.35 2.42.59 3.4.77 3.34 1.13 5.82-.97 8.44h-.01zm-22.78-4.24c-3.24 3.24-2.87 7.2-7.21 7.81 4.17-1.07 4.47-6.6 7.21-7.81zm14.43-15.18c2.56-2.54.18-6.58 1.91-9.24-.86 2.87.79 7.32-1.91 9.24zm4.9-2.68c-.76 3.57 1.67 8.6-1.6 11.08 2.9-3.14.27-7.7 1.6-11.08zm6.26 11.98c1.1-4.6-3.22-8.15-3.82-12.1 1.32 4.05 5.43 7.86 3.82 12.1zm-17.83-10.62c2.88-1.42 4.4-3.65 5.49-6.44-.26 2.93-2.89 5.7-5.49 6.44zm7.2-12.22c-.72-2.72-5.47-4.86-5.56-5.3 2.5 1.32 5.35 2.63 5.58 5.3h-.01zm-1.8-7.83a4.8 4.8 0 00-.87-1.52c-.3-.4-.67-.73-1.01-1.08-.47-.46-1-.88-1.38-1.41-.06-.04-.18-.37-.05-.28.1.17.24.3.4.43.36.31.75.57 1.1.9a6.54 6.54 0 011.45 1.7c.17.33.3.7.35 1.06v.2zm4.27-1.02a6.44 6.44 0 00-2.12-2.49c-1.07-.78-2.46-1.1-3.36-2.1-.23-.27-.4-.6-.46-.94-.03-.14.1.02.1.09.15.34.37.65.67.87.38.31.83.53 1.27.75.56.25 1.12.53 1.64.87a4.98 4.98 0 011.94 2.16c.12.26.23.52.32.79zm10.32 16.23a17.63 17.63 0 00-1.24-4.05 14.3 14.3 0 00-3.74-4.75 5.23 5.23 0 01-1.65-2.28c.17.04.2.43.36.58.65.97 1.65 1.62 2.48 2.43a11.17 11.17 0 013.36 5.49c.23.84.37 1.7.44 2.58zm.09 5.19c-3.03-2.29-3.35-6.63-6.87-8.03 3.8.7 4.57 5.74 6.87 8.03z"/>
      <path d="M87.25 111.8l.1-.31c1.1.4 2.02-.62 3.03-.61-1 .61-1.99 1.17-3.13.92zm32 5.48c.7.85 1.3 1.83 1.54 2.83l-.32.06c-.26-1.07-.92-2.02-1.22-2.89zM85 122.96c.28-1.04 1.44-1.84 2.48-2.03-.86.67-1.8 1.19-2.17 2.12l-.31-.09zm6.34 2.77a5.67 5.67 0 012.22-2.85c-.73 1.06-1.4 1.71-1.76 2.73l-.46.12zm22.51.19c-.1-.93-.22-2.25.51-2.89-.3.98-.33 1.9-.19 2.84l-.32.05zm-7.98 2.24c.49-1.23.75-2.48 1.23-3.65a11.97 11.97 0 01-.93 3.76l-.3-.11zm-6.42-1.93a4.8 4.8 0 01-1.41 3.28l-.22-.24c.83-.9 1.25-2.08 1.63-3.04zm-18.1-7.69c1.26.15 2.48-.1 3.68-.27-1.11.66-2.51.68-3.7.59l.02-.32zm43.12-36.73c.56.45 1.21.78 1.9.93 0 .1-.1.2-.12.31-.73-.2-1.5-.5-1.8-1.22l.02-.02zm3.24 11.5c-.64-.57-1.51-1.31-1.67-2.09.35.28 1.38 1.41 1.86 1.85l-.19.24zm-1.42 8.91c-.6-.67-1.35-1.4-1.44-2.13.35.4 1.18 1.38 1.67 1.91l-.23.22zm-1.11 9.53c-.61-.73-1.35-1.82-.77-2.57-.11.93.43 1.7 1 2.34l-.23.23zM100.3 98.69c-3.6-1.59-3.33.95-5.89 1.26l-.01-.32c.08-.02.17 0 .25-.04 1-.25 1.76-1.06 2.55-1.52 1.14-.6 2.07 0 3.1.62z"/>
      <path d="M72.93 80.64l-.23-.16c1.28-1.53 2.34-1 2.88-2.89.07 2.1-1.92 1.92-2.65 3.05zm19.41.27c.34.04.34.42.23.57-.24-.03-.24-.4-.23-.57zm-.81-.76c.39.17.34.48.2.62-.24-.18-.26-.34-.2-.62zm-.98-.8c.38.15.42.53.35.87-.29-.11-.34-.63-.35-.87zm11.59 10.5c.3.29.16.52-.1.67-.4-.39-.06-.7.1-.68zm-.67-.62a.7.7 0 01.01-.87c.32.3.22.66-.01.87zm-.77-2.36c.3.3.23.96-.04 1.24-.27-.43-.34-.86.04-1.24zm-1.16-1.4c.32.46.25.95-.02 1.39-.24-.5-.32-1.04.02-1.4zm-19.46-1.3c.97.04 2.02.12 2.83.04-.88.53-1.98.34-2.83-.03zm12.63 3.23c1.5-.39 3.17-.1 4.55.58-1.42-.35-3.08-.31-4.55-.59zm-16.8-10.18c-.62-.44-.62.15-.86.58-.7 1.3-2.27 1.56-2.66.03-.04-.08-.03-.28-.1-.1-.21.32-.21.73-.17 1.1-.16-.13-.15-.36-.16-.54 0-.23.03-.47.12-.68.06-.16.28-.32.43-.17.1.1.14.26.17.4.57 1.42 1.97.47 2.36-.54.3-.45.54-.45.87-.08zm-2.32-1.58c-.4-.22-.84-.4-1.12-.64.62-.07 1.09.02 1.12.64z"/>
    </g>
  </g><g id="crown2" stroke-width=".57" source="http://wappenwiki.org/images/1/1c/Astrakhan.svg" license="https://creativecommons.org/licenses/by-nc-sa/3.0">
    <path class="tertiary" d="M130.07 93.52c-3.3-3-6.9-3.5-11.07-3.55-3.77-.06-7.19 2.56-10.95 1.67-3.11-.72-5.53-3.61-8.68-4.1-3.69-.6-7.03 2.22-10.66 3.1-3.8.9-7.22-1.19-10.87-.73-3.23.4-6.55 1.77-8.99 4.05-3.68 3.44-3.53 9.65-1.8 14.51 1.75 4.87 4.73 9.2 5.95 14.25l26.63-.19 26.64-.19c1.16-5.05 4.1-9.44 5.78-14.32 1.69-4.89 1.76-11.12-1.98-14.5z"/>
    <path class="tertiary" d="M75.18 135.43c2.07-.45 13.47-1.21 24.95-1.21 11.4 0 22.82.74 24.95 1.21-1.32 0-8.2 1.37-24.95 1.37-16.76 0-23.7-1.37-24.95-1.37z"/>
    <g>
      <path d="M70.336 113.811a25.752 25.752 0 0 1-3.971-6.897 21.864 21.864 0 0 1-1.482-7.904c-.019-2.717.665-5.491 1.9-7.961.285-.627.703-1.197 1.045-1.786.38-.551.779-1.083 1.197-1.596a21.995 21.995 0 0 1 2.793-2.85c2.014-1.729 4.332-3.078 6.764-4.066a29.007 29.007 0 0 1 3.705-1.197 67.186 67.186 0 0 1 3.686-.779 72.418 72.418 0 0 1 14.896-1.159l-.057 3.154a69.658 69.658 0 0 0-14.174 1.425 47.82 47.82 0 0 0-3.439.817c-1.102.304-2.185.665-3.211 1.121-2.071.893-3.99 2.09-5.643 3.572a19.59 19.59 0 0 0-2.261 2.432c-.342.437-.646.893-.969 1.349-.247.475-.551.893-.76 1.387-.893 1.9-1.387 4.009-1.311 6.156.057 4.313 1.957 8.607 4.769 11.97l-3.477 2.812z"/>
      <path d="M100.907 111.93s.893 7.6 7.22 7.6c5.32 0 9.595-5.643 9.595-5.643s.893 7.125 7.068 7.125c3.534 0 8.493-6.954 8.493-6.954s-3.743 11.609-4.845 18.867l-28.481-1.273-28.481 1.273c-1.102-7.277-4.845-18.867-4.845-18.867s4.959 6.954 8.493 6.954c6.213 0 7.068-7.125 7.068-7.125s4.275 6.327 9.595 6.327c6.384 0 7.22-7.6 7.22-7.6l1.311.627.589-1.311z"/>
      <path d="M100.014 123.159c-15.561 0-26.999 2.109-30.058 2.527-.836.152-1.368-.266-1.482-.836-.114-.589.418-1.691 1.159-1.786 2.47-.475 11.704-2.527 30.419-2.527s27.892 2.052 30.362 2.527c.741.114 1.273 1.159 1.159 1.786-.114.589-.627.95-1.482.836-3.135-.418-14.516-2.527-30.077-2.527z"/>
      <path d="M80.824 116.908c1.14-1.083 2.527-1.672 4.028-1.957a43.681 43.681 0 0 1-1.482-7.372c-.456-3.895-.437-7.885.266-11.647.38-1.881.931-3.648 1.824-5.168.931-1.558 2.185-2.964 3.61-4.199 2.888-2.432 6.479-4.066 10.222-4.598l-.399-3.173c-4.389.494-8.607 2.28-12.065 5.054-1.729 1.406-3.287 3.04-4.503 4.978a17.984 17.984 0 0 0-1.52 3.097 25.402 25.402 0 0 0-.95 3.192c-.475 2.147-.722 4.294-.817 6.441-.114 2.147-.038 4.294.152 6.422a50.936 50.936 0 0 0 1.634 8.93z"/>
      <path d="M129.635 113.811a25.752 25.752 0 0 0 3.971-6.897 21.864 21.864 0 0 0 1.482-7.904c.019-2.717-.665-5.491-1.9-7.961-.285-.627-.703-1.197-1.045-1.786a24.947 24.947 0 0 0-1.197-1.596 21.995 21.995 0 0 0-2.793-2.85c-2.014-1.729-4.332-3.078-6.764-4.066a29.007 29.007 0 0 0-3.705-1.197 67.186 67.186 0 0 0-3.686-.779 72.418 72.418 0 0 0-14.896-1.159l.057 3.154c4.75-.019 9.519.475 14.174 1.425a47.82 47.82 0 0 1 3.439.817c1.102.304 2.185.665 3.211 1.121 2.071.893 3.99 2.09 5.643 3.572a19.59 19.59 0 0 1 2.261 2.432c.342.437.646.893.969 1.349.247.475.551.893.76 1.387.893 1.9 1.387 4.009 1.311 6.156-.057 4.313-1.957 8.607-4.769 11.97l3.477 2.812z"/>
      <path d="M119.147 116.908c-1.14-1.083-2.527-1.672-4.028-1.957a43.682 43.682 0 0 0 1.482-7.372c.456-3.895.437-7.885-.266-11.647-.38-1.881-.931-3.648-1.824-5.168-.931-1.558-2.185-2.964-3.61-4.199a20.49 20.49 0 0 0-10.222-4.598l.399-3.173c4.389.494 8.607 2.28 12.065 5.054 1.729 1.406 3.287 3.04 4.503 4.978a17.984 17.984 0 0 1 1.52 3.097c.399 1.064.703 2.128.95 3.192.475 2.147.722 4.294.817 6.441.114 2.147.038 4.294-.152 6.422a47.654 47.654 0 0 1-1.634 8.93z"/>
      <polygon points="92.775 65.874 98.703 66.748 97.886 60.668 102.503 60.668 101.743 66.748 107.69 65.874 107.69 70.491 101.629 69.332 100.983 76.343 99.406 76.343 98.76 69.332 92.775 70.491"/>
      <polygon points="96.442 104.729 103.605 104.729 103.073 79.288 96.955 79.288"/>
      <path d="M96.233 77.844c0 2.052 1.691 2.565 3.8 2.565 2.052 0 3.8-.494 3.8-2.565 0-2.052-1.691-3.743-3.8-3.743-2.109-.057-3.8 1.691-3.8 3.743z"/>
      <path d="M108.298 120.841c-2.318 0-4.332-1.102-5.7-2.907-1.691-1.957-2.584-4.484-2.584-4.484s-1.216 2.907-2.527 4.484c-1.368 1.786-3.382 2.907-5.643 2.907-5.643 0-9.177-5.738-9.177-5.738s-1.045 6.593-7.068 6.593c-5.32 0-8.113-6.441-8.113-6.441l.741-3.268s2.736 6.802 7.6 6.802c3.591 0 4.807-4.275 5.529-6.479.418-1.425.741-1.691 1.995-.323 1.634 1.957 4.218 5.909 8.436 5.909 5.586 0 6.384-9.12 6.384-9.12h3.629s.798 9.12 6.384 9.12c4.218 0 6.802-3.952 8.436-5.909 1.216-1.425 1.52-1.159 2.052.323.684 2.223 1.9 6.479 5.529 6.479 4.845 0 7.6-6.802 7.6-6.802l.741 3.268s-2.793 6.441-8.113 6.441c-5.909 0-7.068-6.593-7.068-6.593s-3.42 5.738-9.063 5.738z"/>
      <path d="M98.38 109.973c4.009 0 6.004 4.218 8.854 4.218 4.009 0 3.173-3.952 3.173-5.016 0-1.007.893-5.016-3.173-5.016-2.907 0-4.845 4.218-8.854 4.218"/>
      <path d="M101.819 109.973c-4.009 0-5.966 4.218-8.854 4.218-4.009 0-3.325-3.952-3.325-5.016 0-1.007-.741-5.016 3.325-5.016 2.907 0 4.845 4.218 8.854 4.218"/>
      <path d="M134.29 112.5s1.102-5.586 2.47-10.811c-1.102-.323-5.377-1.9-6.441 1.9-.684 2.736 3.534 5.586 2.527 9.329"/>
      <path d="M135.354 113.659c-3.952-.836-6.916 2.793-9.709 2.223-3.895-.836-2.166-4.541-1.9-5.586.266-1.007.532-5.016 4.484-4.218 2.85.627 3.686 5.111 7.6 5.966"/>
      <path d="M100.964 109.764c0-3.895 4.807-5.738 4.807-8.588 0-3.857-4.579-3.154-5.738-3.154-1.159 0-5.738-.684-5.738 3.154 0 2.793 4.807 4.693 4.807 8.588"/>
      <path d="M65.852 112.5s-1.102-5.586-2.47-10.811c1.102-.323 5.377-1.9 6.441 1.9.684 2.736-3.534 5.586-2.527 9.329"/>
      <path d="M64.807 113.659c3.952-.836 6.916 2.793 9.709 2.223 3.895-.836 2.166-4.541 1.9-5.586-.266-1.007-.532-5.016-4.484-4.218-2.85.627-3.686 5.111-7.638 5.966"/>
      <path d="M69.899 135.205c.114 1.007.703 1.539 1.425 1.767 5.358 2.09 17.955 2.755 28.766 2.755s23.351-.589 28.766-2.755c.703-.304 1.311-.855 1.425-1.767.057-.931-.266-1.615-1.083-1.767-.703-.228-14.193-2.204-29.089-2.204-14.953 0-28.329 1.976-29.089 2.204-.798.076-1.178.76-1.121 1.767zm5.282.228c2.071-.456 13.471-1.216 24.947-1.216 11.4 0 22.819.741 24.947 1.216-1.311 0-8.189 1.368-24.947 1.368s-23.693-1.368-24.947-1.368z"/>
    </g>
    <g fill="#000" stroke="none">
      <path d="M74.95 95.44c-.07.6-.13 1.21-.11 1.8a10.9 10.9 0 0 0 .59 3.5c.19.57.43 1.1.72 1.65a5.28 5.28 0 0 1-1.05-1.52 6.8 6.8 0 0 1-.63-3.65c.06-.6.22-1.23.48-1.78z"/>
      <path d="M91.54 94.22c-.23.74-.74 1.39-1.33 1.9s-1.27.93-1.94 1.31c-.66.38-1.33.76-1.94 1.18-.6.44-1.17.95-1.61 1.6.27-.74.78-1.37 1.39-1.86.6-.52 1.27-.92 1.93-1.3.67-.38 1.33-.76 1.94-1.2.61-.43 1.16-.96 1.56-1.63z"/>
      <path d="M109.13 95.08c-.01.8.38 1.5.88 2.07.51.57 1.14 1.02 1.7 1.63a5.4 5.4 0 0 1 1.2 2.11c.27.74.5 1.5.82 2.22-.5-.62-.82-1.36-1.16-2.09a7.2 7.2 0 0 0-1.2-1.93c-.5-.57-1.13-1.07-1.63-1.73-.25-.33-.44-.7-.57-1.09-.11-.4-.15-.81-.04-1.2z"/>
      <path d="M124.98 96.14c-.25.8-.68 1.52-1.16 2.2-.47.69-1 1.32-1.52 1.96-.51.63-1.02 1.27-1.46 1.96a7.17 7.17 0 0 0-.97 2.24 5.4 5.4 0 0 1 .66-2.41c.38-.76.9-1.43 1.41-2.07.53-.65 1.08-1.26 1.6-1.88.53-.63 1.02-1.28 1.44-2z"/>
    </g>
    <g class="secondary">
      <path d="M118.48 127.89a2.38 2.38 0 0 1-2.43 2.38 2.38 2.38 0 0 1 0-4.76 2.43 2.43 0 0 1 2.43 2.38z"/>
      <path d="M131.23 129.85a2.49 2.49 0 0 1-2.85 1.9c-.68-.15-.83-1.28-.53-2.53.32-1.31 1-2.26 1.58-2.1a2.21 2.21 0 0 1 1.8 2.73z"/>
      <path d="M81.62 127.89a2.38 2.38 0 0 0 2.43 2.38c1.32 0 2.44-1.07 2.44-2.38s-1.07-2.38-2.44-2.38-2.43 1.07-2.43 2.38z"/>
      <path d="M95.23 127.11c0 1.58 2.16 2.9 4.8 2.9 2.7 0 4.81-1.3 4.81-2.9s-2.17-2.9-4.8-2.9c-2.65.1-4.81 1.36-4.81 2.9z"/>
      <path d="M68.85 129.85a2.49 2.49 0 0 0 2.85 1.9c.69-.15.84-1.28.54-2.53-.33-1.31-1.01-2.26-1.58-2.1a2.19 2.19 0 0 0-1.8 2.73z"/>
      <path d="M70.75 86.47c.69.59 1.32.19 1.92-.47.6-.69.93-1.35.3-1.98a1.71 1.71 0 0 0-2.33.13c-.59.67-.5 1.73.11 2.32z"/>
      <path d="M75.92 81.9c.32.83 1.08.77 1.94.48.84-.32 1.48-.77 1.16-1.61s-1.24-1.31-2.13-.95a1.67 1.67 0 0 0-.97 2.07z"/>
      <path d="M82.74 79.48c.14.9.88 1 1.77.93.9-.13 1.63-.42 1.5-1.31a1.64 1.64 0 0 0-1.84-1.43c-.88.14-1.54.97-1.43 1.8z"/>
      <path d="M89.92 78.28c.14.9.88 1 1.77.93.9-.13 1.64-.42 1.5-1.3a1.64 1.64 0 0 0-1.84-1.43c-.9.13-1.54.96-1.43 1.8z"/>
      <path d="M66.63 91.73c.78.48 1.37-.07 1.8-.83.48-.78.69-1.5-.1-1.98a1.65 1.65 0 0 0-2.27.59c-.47.72-.23 1.73.57 2.22z"/>
      <path d="M65.5 98.46c.88 0 1.13-.72 1.13-1.62s-.2-1.65-1.1-1.67-1.64.7-1.67 1.66c-.02.85.76 1.63 1.63 1.63z"/>
      <path d="M85.95 85.71c.6.68 1.28.38 1.96-.2.69-.6 1.12-1.2.57-1.93a1.69 1.69 0 0 0-2.32-.2c-.68.6-.72 1.67-.2 2.33z"/>
      <path d="M91.9 81.23c.32.83 1.08.77 1.94.49.83-.32 1.48-.78 1.16-1.61a1.64 1.64 0 0 0-2.13-.95c-.84.32-1.27 1.29-.97 2.07z"/>
      <path d="M82.13 91.18c.82.44 1.35-.17 1.73-.95.44-.82.57-1.54-.24-1.97-.82-.44-1.79-.06-2.23.76-.4.74-.07 1.74.74 2.16z"/>
      <path d="M80.39 97.66c.87.12 1.21-.57 1.33-1.46.11-.88 0-1.67-.88-1.79-.87-.11-1.7.5-1.86 1.43-.13.83.53 1.7 1.4 1.82z"/>
      <path d="M80.18 105.09c.87-.06 1.08-.8 1.02-1.7-.05-.86-.32-1.62-1.21-1.57a1.7 1.7 0 0 0-1.56 1.77c.04.83.87 1.56 1.75 1.5z"/>
      <path d="M129.22 86.47c-.69.59-1.31.19-1.92-.47-.6-.69-.93-1.35-.3-1.98a1.71 1.71 0 0 1 2.33.13c.6.67.5 1.73-.11 2.32z"/>
      <path d="M124.05 81.9c-.32.83-1.08.77-1.94.48-.83-.32-1.48-.77-1.16-1.61s1.24-1.31 2.13-.95c.82.3 1.27 1.27.97 2.07z"/>
      <path d="M117.23 79.48c-.14.9-.88 1-1.77.93-.9-.13-1.63-.42-1.5-1.31.13-.9.91-1.56 1.84-1.43.88.14 1.54.97 1.43 1.8z"/>
      <path d="M110.06 78.28c-.13.9-.87 1-1.76.93-.9-.13-1.64-.42-1.5-1.3.13-.9.9-1.57 1.84-1.43.87.13 1.54.96 1.43 1.8z"/>
      <path d="M133.36 91.73c-.78.48-1.37-.07-1.8-.83-.48-.78-.69-1.5.1-1.98a1.65 1.65 0 0 1 2.27.59c.45.72.2 1.73-.57 2.22z"/>
      <path d="M134.48 98.46c-.9 0-1.14-.72-1.14-1.62s.2-1.65 1.1-1.67 1.64.7 1.67 1.66c.02.85-.74 1.63-1.63 1.63z"/>
      <path d="M114.02 85.71c-.6.68-1.28.38-1.96-.2-.68-.6-1.12-1.2-.57-1.93a1.69 1.69 0 0 1 2.32-.2c.68.6.74 1.67.2 2.33z"/>
      <path d="M108.07 81.23c-.32.83-1.08.77-1.94.49-.83-.32-1.48-.78-1.16-1.61a1.64 1.64 0 0 1 2.13-.95c.84.32 1.3 1.29.97 2.07z"/>
      <path d="M117.84 91.18c-.82.44-1.35-.17-1.73-.95-.44-.82-.57-1.54.24-1.97.82-.44 1.79-.06 2.23.76.4.74.07 1.74-.74 2.16z"/>
      <path d="M119.58 97.66c-.87.12-1.21-.57-1.33-1.46-.11-.88 0-1.67.88-1.79.87-.11 1.7.5 1.86 1.43.13.83-.53 1.7-1.4 1.82z"/>
      <path d="M119.8 105.09c-.88-.06-1.09-.8-1.03-1.7.05-.86.32-1.62 1.21-1.57.88.06 1.6.82 1.56 1.77-.04.83-.85 1.56-1.75 1.5z"/>
      <path d="M101.69 94.83c0 .9-.75 1.14-1.64 1.14-.9 0-1.63-.15-1.69-1.08s.68-1.64 1.63-1.7c.9 0 1.7.75 1.7 1.64z"/>
      <path d="M101.69 89.76c0 .89-.75 1.14-1.64 1.14-.9 0-1.63-.16-1.69-1.09-.06-.93.68-1.63 1.63-1.69.9 0 1.7.74 1.7 1.64z"/>
      <path d="M101.69 84.68c0 .9-.75 1.14-1.64 1.14-.9 0-1.63-.15-1.69-1.08-.06-.93.68-1.63 1.63-1.69.9 0 1.7.74 1.7 1.63z"/>
      <path d="M135.92 113.3a2.95 2.95 0 0 1-3.47 2.16c-.84-.15-.95-1.52-.53-3.05.36-1.52 1.3-2.7 2.05-2.53a2.78 2.78 0 0 1 1.95 3.42z"/>
      <path d="M96.86 109.02a3.21 3.21 0 0 0 6.42 0 3.19 3.19 0 0 0-3.2-3.17 3.22 3.22 0 0 0-3.22 3.17z"/>
      <path d="M64.16 113.3a2.95 2.95 0 0 0 3.48 2.16c.83-.15.95-1.52.53-3.05-.36-1.52-1.31-2.7-2.05-2.53a2.74 2.74 0 0 0-1.96 3.42z"/>
      <path d="M81.89 108.19c1.82 0 3.3 1.42 3.3 3.19s-1.48 3.2-3.3 3.2a3.25 3.25 0 0 1-3.3-3.2c0-1.71 1.47-3.2 3.3-3.2z"/>
      <path d="M118.25 108.19c-1.82 0-3.3 1.42-3.3 3.19s1.48 3.2 3.3 3.2c1.83 0 3.31-1.43 3.31-3.2 0-1.71-1.48-3.2-3.3-3.2z"/>
    </g>
  </g><style xmlns="http://www.w3.org/1999/xhtml" type="text/css"></style></defs>  <g clip-path="url(#shield_218442294)"><rect class="field" x="0" y="0" width="200" height="200" fill="#fafafa"/><g class="charge" i="0" charge="mullet6Faceted" fill="#522d5b" stroke="#000" style="--secondary: #522d5b; --tertiary: #522d5b;"><use xlink:href="#mullet6Faceted" xmlns:xlink="http://www.w3.org/1999/xlink" transform="translate(33 33) scale(0.19)"/><use xlink:href="#mullet6Faceted" xmlns:xlink="http://www.w3.org/1999/xlink" transform="translate(58 3) scale(0.19)"/><use xlink:href="#mullet6Faceted" xmlns:xlink="http://www.w3.org/1999/xlink" transform="translate(104 3) scale(0.19)"/><use xlink:href="#mullet6Faceted" xmlns:xlink="http://www.w3.org/1999/xlink" transform="translate(129 33) scale(0.19)"/><use xlink:href="#mullet6Faceted" xmlns:xlink="http://www.w3.org/1999/xlink" transform="translate(140 71) scale(0.19)"/><use xlink:href="#mullet6Faceted" xmlns:xlink="http://www.w3.org/1999/xlink" transform="translate(136 112) scale(0.19)"/><use xlink:href="#mullet6Faceted" xmlns:xlink="http://www.w3.org/1999/xlink" transform="translate(117 149) scale(0.19)"/><use xlink:href="#mullet6Faceted" xmlns:xlink="http://www.w3.org/1999/xlink" transform="translate(81 166) scale(0.19)"/><use xlink:href="#mullet6Faceted" xmlns:xlink="http://www.w3.org/1999/xlink" transform="translate(45 149) scale(0.19)"/><use xlink:href="#mullet6Faceted" xmlns:xlink="http://www.w3.org/1999/xlink" transform="translate(26 112) scale(0.19)"/><use xlink:href="#mullet6Faceted" xmlns:xlink="http://www.w3.org/1999/xlink" transform="translate(22 71) scale(0.19)"/></g><g class="division" clip-path="url(#division_218442294)"><rect x="0" y="0" width="200" height="200" fill="#522d5b"/><g class="charge" i="0" charge="mullet6Faceted" fill="#fafafa" stroke="#000" style="--secondary: #fafafa; --tertiary: #fafafa;"><use xlink:href="#mullet6Faceted" xmlns:xlink="http://www.w3.org/1999/xlink" transform="translate(33 33) scale(0.19)"/><use xlink:href="#mullet6Faceted" xmlns:xlink="http://www.w3.org/1999/xlink" transform="translate(58 3) scale(0.19)"/><use xlink:href="#mullet6Faceted" xmlns:xlink="http://www.w3.org/1999/xlink" transform="translate(104 3) scale(0.19)"/><use xlink:href="#mullet6Faceted" xmlns:xlink="http://www.w3.org/1999/xlink" transform="translate(129 33) scale(0.19)"/><use xlink:href="#mullet6Faceted" xmlns:xlink="http://www.w3.org/1999/xlink" transform="translate(140 71) scale(0.19)"/><use xlink:href="#mullet6Faceted" xmlns:xlink="http://www.w3.org/1999/xlink" transform="translate(136 112) scale(0.19)"/><use xlink:href="#mullet6Faceted" xmlns:xlink="http://www.w3.org/1999/xlink" transform="translate(117 149) scale(0.19)"/><use xlink:href="#mullet6Faceted" xmlns:xlink="http://www.w3.org/1999/xlink" transform="translate(81 166) scale(0.19)"/><use xlink:href="#mullet6Faceted" xmlns:xlink="http://www.w3.org/1999/xlink" transform="translate(45 149) scale(0.19)"/><use xlink:href="#mullet6Faceted" xmlns:xlink="http://www.w3.org/1999/xlink" transform="translate(26 112) scale(0.19)"/><use xlink:href="#mullet6Faceted" xmlns:xlink="http://www.w3.org/1999/xlink" transform="translate(22 71) scale(0.19)"/></g></g><g class="charge" i="1" charge="wolfHeadErased" fill="#ffff2b" transform="translate(-3 15)" stroke="#000" style="--secondary: #400000; --tertiary: #ffff2b;"><use xlink:href="#wolfHeadErased" xmlns:xlink="http://www.w3.org/1999/xlink" transform="translate(-19 -19) scale(1.19)"/></g><g class="charge" i="2" charge="crown2" fill="#ffff2b" transform="translate(0 -7)" stroke="#000" style="--secondary: #000000; --tertiary: #400000;"><use xlink:href="#crown2" xmlns:xlink="http://www.w3.org/1999/xlink" transform="translate(38 -12) scale(0.62)"/></g></g> <path class="grad" d="m 32.3,99.5 a 67.7,93.7 0 1 1 0,1.3 z" fill="url(#luster)" stroke="#333333" stroke-width="1" style="pointer-events: none;"/>  </svg>